<svg width="130" height="205" viewBox="0 0 130 205" fill="none" xmlns="http://www.w3.org/2000/svg">
<path d="M23.8728 188.02H14.3328L12.5028 193H10.2828L17.9328 172.3H20.3028L27.9228 193H25.7028L23.8728 188.02ZM23.2428 186.28L19.1028 174.94L14.9628 186.28H23.2428ZM34.0231 178.39V188.56C34.0231 189.56 34.2131 190.25 34.5931 190.63C34.9731 191.01 35.6431 191.2 36.6031 191.2H38.5231V193H36.2731C34.7931 193 33.6931 192.66 32.9731 191.98C32.2531 191.28 31.8931 190.14 31.8931 188.56V178.39H29.6131V176.62H31.8931V172.51H34.0231V176.62H38.5231V178.39H34.0231ZM49.7864 176.32C51.0264 176.32 52.1364 176.58 53.1164 177.1C54.1164 177.62 54.8964 178.42 55.4564 179.5C56.0364 180.56 56.3264 181.86 56.3264 183.4V193H54.2564V183.64C54.2564 181.86 53.8064 180.5 52.9064 179.56C52.0264 178.62 50.8164 178.15 49.2764 178.15C47.6964 178.15 46.4364 178.65 45.4964 179.65C44.5564 180.65 44.0864 182.12 44.0864 184.06V193H41.9864V170.8H44.0864V179.41C44.6064 178.43 45.3664 177.67 46.3664 177.13C47.3864 176.59 48.5264 176.32 49.7864 176.32ZM63.0708 170.8V193H60.9708V170.8H63.0708ZM82.6463 183.97C82.6463 184.69 82.6263 185.24 82.5863 185.62H68.9963C69.0563 186.86 69.3563 187.92 69.8963 188.8C70.4363 189.68 71.1463 190.35 72.0263 190.81C72.9063 191.25 73.8663 191.47 74.9063 191.47C76.2663 191.47 77.4063 191.14 78.3263 190.48C79.2663 189.82 79.8863 188.93 80.1863 187.81H82.4063C82.0063 189.41 81.1463 190.72 79.8263 191.74C78.5263 192.74 76.8863 193.24 74.9063 193.24C73.3663 193.24 71.9863 192.9 70.7663 192.22C69.5463 191.52 68.5863 190.54 67.8863 189.28C67.2063 188 66.8663 186.51 66.8663 184.81C66.8663 183.11 67.2063 181.62 67.8863 180.34C68.5663 179.06 69.5163 178.08 70.7363 177.4C71.9563 176.72 73.3463 176.38 74.9063 176.38C76.4663 176.38 77.8263 176.72 78.9863 177.4C80.1663 178.08 81.0663 179 81.6863 180.16C82.3263 181.3 82.6463 182.57 82.6463 183.97ZM80.5163 183.91C80.5363 182.69 80.2863 181.65 79.7663 180.79C79.2663 179.93 78.5763 179.28 77.6963 178.84C76.8163 178.4 75.8563 178.18 74.8163 178.18C73.2563 178.18 71.9263 178.68 70.8263 179.68C69.7263 180.68 69.1163 182.09 68.9963 183.91H80.5163ZM89.2184 178.39V188.56C89.2184 189.56 89.4084 190.25 89.7884 190.63C90.1684 191.01 90.8384 191.2 91.7984 191.2H93.7184V193H91.4684C89.9884 193 88.8884 192.66 88.1684 191.98C87.4484 191.28 87.0884 190.14 87.0884 188.56V178.39H84.8084V176.62H87.0884V172.51H89.2184V176.62H93.7184V178.39H89.2184ZM98.2317 173.53C97.8117 173.53 97.4517 173.38 97.1517 173.08C96.8517 172.78 96.7017 172.41 96.7017 171.97C96.7017 171.53 96.8517 171.17 97.1517 170.89C97.4517 170.59 97.8117 170.44 98.2317 170.44C98.6517 170.44 99.0117 170.59 99.3117 170.89C99.6117 171.17 99.7617 171.53 99.7617 171.97C99.7617 172.41 99.6117 172.78 99.3117 173.08C99.0117 173.38 98.6517 173.53 98.2317 173.53ZM99.2817 176.62V193H97.1817V176.62H99.2817ZM103.077 184.81C103.077 183.11 103.417 181.63 104.097 180.37C104.777 179.09 105.717 178.11 106.917 177.43C108.117 176.73 109.487 176.38 111.027 176.38C113.047 176.38 114.707 176.88 116.007 177.88C117.327 178.88 118.177 180.24 118.557 181.96H116.307C116.027 180.78 115.417 179.86 114.477 179.2C113.557 178.52 112.407 178.18 111.027 178.18C109.927 178.18 108.937 178.43 108.057 178.93C107.177 179.43 106.477 180.18 105.957 181.18C105.457 182.16 105.207 183.37 105.207 184.81C105.207 186.25 105.457 187.47 105.957 188.47C106.477 189.47 107.177 190.22 108.057 190.72C108.937 191.22 109.927 191.47 111.027 191.47C112.407 191.47 113.557 191.14 114.477 190.48C115.417 189.8 116.027 188.86 116.307 187.66H118.557C118.177 189.34 117.327 190.69 116.007 191.71C114.687 192.73 113.027 193.24 111.027 193.24C109.487 193.24 108.117 192.9 106.917 192.22C105.717 191.52 104.777 190.54 104.097 189.28C103.417 188 103.077 186.51 103.077 184.81Z" fill="black"/>
<path d="M101.454 33.7708C105.534 33.7708 109.448 32.1498 112.333 29.2645C115.218 26.3792 116.839 22.4659 116.839 18.3854C116.839 14.3049 115.218 10.3916 112.333 7.50628C109.448 4.62096 105.534 3 101.454 3C97.3733 3 93.46 4.62096 90.5746 7.50628C87.6893 10.3916 86.0684 14.3049 86.0684 18.3854C86.0684 22.4659 87.6893 26.3792 90.5746 29.2645C93.46 32.1498 97.3733 33.7708 101.454 33.7708Z" stroke="#121212" stroke-width="6"/>
<path d="M27.6043 39.217L52.2302 30.6874L86.0689 46.839L52.2302 72.0618L86.0689 94.3399L64.5539 123M99.3619 54.2117L107.615 58.7011L126.071 41.3587M42.5251 84.6809L33.3862 96.7185L3 113.765" stroke="#121212" stroke-width="6" stroke-linecap="round" stroke-linejoin="round"/>
</svg>
