<svg width="138" height="212" viewBox="0 0 138 212" fill="none" xmlns="http://www.w3.org/2000/svg">
<path d="M17.8013 188.545C18.9813 188.765 19.9813 189.365 20.8013 190.345C21.6213 191.325 22.0313 192.465 22.0313 193.765C22.0313 194.825 21.7613 195.785 21.2213 196.645C20.7013 197.485 19.9313 198.155 18.9113 198.655C17.8913 199.135 16.6713 199.375 15.2513 199.375H7.99131V178.405H15.0413C17.1613 178.405 18.7713 178.895 19.8713 179.875C20.9913 180.855 21.5513 182.125 21.5513 183.685C21.5513 184.985 21.2013 186.045 20.5013 186.865C19.8013 187.665 18.9013 188.225 17.8013 188.545ZM10.0913 187.675H14.9813C16.4013 187.675 17.4913 187.345 18.2513 186.685C19.0313 186.005 19.4213 185.075 19.4213 183.895C19.4213 182.735 19.0313 181.825 18.2513 181.165C17.4913 180.505 16.3713 180.175 14.8913 180.175H10.0913V187.675ZM15.1013 197.605C16.6213 197.605 17.8013 197.245 18.6413 196.525C19.5013 195.805 19.9313 194.815 19.9313 193.555C19.9313 192.295 19.4813 191.295 18.5813 190.555C17.7013 189.795 16.5113 189.415 15.0113 189.415H10.0913V197.605H15.1013ZM40.0817 182.995V199.375H37.9817V196.495C37.5017 197.515 36.7617 198.295 35.7617 198.835C34.7617 199.375 33.6417 199.645 32.4017 199.645C30.4417 199.645 28.8417 199.045 27.6017 197.845C26.3617 196.625 25.7417 194.865 25.7417 192.565V182.995H27.8117V192.325C27.8117 194.105 28.2517 195.465 29.1317 196.405C30.0317 197.345 31.2517 197.815 32.7917 197.815C34.3717 197.815 35.6317 197.315 36.5717 196.315C37.5117 195.315 37.9817 193.845 37.9817 191.905V182.995H40.0817ZM50.5161 199.615C48.6361 199.615 47.0961 199.185 45.8961 198.325C44.7161 197.445 44.0561 196.255 43.9161 194.755H46.0761C46.1761 195.675 46.6061 196.425 47.3661 197.005C48.1461 197.565 49.1861 197.845 50.4861 197.845C51.6261 197.845 52.5161 197.575 53.1561 197.035C53.8161 196.495 54.1461 195.825 54.1461 195.025C54.1461 194.465 53.9661 194.005 53.6061 193.645C53.2461 193.285 52.7861 193.005 52.2261 192.805C51.6861 192.585 50.9461 192.355 50.0061 192.115C48.7861 191.795 47.7961 191.475 47.0361 191.155C46.2761 190.835 45.6261 190.365 45.0861 189.745C44.5661 189.105 44.3061 188.255 44.3061 187.195C44.3061 186.395 44.5461 185.655 45.0261 184.975C45.5061 184.295 46.1861 183.755 47.0661 183.355C47.9461 182.955 48.9461 182.755 50.0661 182.755C51.8261 182.755 53.2461 183.205 54.3261 184.105C55.4061 184.985 55.9861 186.205 56.0661 187.765H53.9661C53.9061 186.805 53.5261 186.035 52.8261 185.455C52.1461 184.855 51.2061 184.555 50.0061 184.555C48.9461 184.555 48.0861 184.805 47.4261 185.305C46.7661 185.805 46.4361 186.425 46.4361 187.165C46.4361 187.805 46.6261 188.335 47.0061 188.755C47.4061 189.155 47.8961 189.475 48.4761 189.715C49.0561 189.935 49.8361 190.185 50.8161 190.465C51.9961 190.785 52.9361 191.095 53.6361 191.395C54.3361 191.695 54.9361 192.135 55.4361 192.715C55.9361 193.295 56.1961 194.065 56.2161 195.025C56.2161 195.905 55.9761 196.695 55.4961 197.395C55.0161 198.075 54.3461 198.615 53.4861 199.015C52.6261 199.415 51.6361 199.615 50.5161 199.615ZM61.219 179.905C60.799 179.905 60.439 179.755 60.139 179.455C59.839 179.155 59.689 178.785 59.689 178.345C59.689 177.905 59.839 177.545 60.139 177.265C60.439 176.965 60.799 176.815 61.219 176.815C61.639 176.815 61.999 176.965 62.299 177.265C62.599 177.545 62.749 177.905 62.749 178.345C62.749 178.785 62.599 179.155 62.299 179.455C61.999 179.755 61.639 179.905 61.219 179.905ZM62.269 182.995V199.375H60.169V182.995H62.269ZM74.7045 182.695C76.6645 182.695 78.2645 183.305 79.5045 184.525C80.7445 185.725 81.3645 187.475 81.3645 189.775V199.375H79.2945V190.015C79.2945 188.235 78.8445 186.875 77.9445 185.935C77.0645 184.995 75.8545 184.525 74.3145 184.525C72.7345 184.525 71.4745 185.025 70.5345 186.025C69.5945 187.025 69.1245 188.495 69.1245 190.435V199.375H67.0245V182.995H69.1245V185.785C69.6445 184.785 70.3945 184.025 71.3745 183.505C72.3545 182.965 73.4645 182.695 74.7045 182.695ZM100.829 190.345C100.829 191.065 100.809 191.615 100.769 191.995H87.1789C87.2389 193.235 87.5389 194.295 88.0789 195.175C88.6189 196.055 89.3289 196.725 90.2089 197.185C91.0889 197.625 92.0489 197.845 93.0889 197.845C94.4489 197.845 95.5889 197.515 96.5089 196.855C97.4489 196.195 98.0689 195.305 98.3689 194.185H100.589C100.189 195.785 99.3289 197.095 98.0089 198.115C96.7089 199.115 95.0689 199.615 93.0889 199.615C91.5489 199.615 90.1689 199.275 88.9489 198.595C87.7289 197.895 86.7689 196.915 86.0689 195.655C85.3889 194.375 85.0489 192.885 85.0489 191.185C85.0489 189.485 85.3889 187.995 86.0689 186.715C86.7489 185.435 87.6989 184.455 88.9189 183.775C90.1389 183.095 91.5289 182.755 93.0889 182.755C94.6489 182.755 96.0089 183.095 97.1689 183.775C98.3489 184.455 99.2489 185.375 99.8689 186.535C100.509 187.675 100.829 188.945 100.829 190.345ZM98.6989 190.285C98.7189 189.065 98.4689 188.025 97.9489 187.165C97.4489 186.305 96.7589 185.655 95.8789 185.215C94.9989 184.775 94.0389 184.555 92.9989 184.555C91.4389 184.555 90.1089 185.055 89.0089 186.055C87.9089 187.055 87.2989 188.465 87.1789 190.285H98.6989ZM110.311 199.615C108.431 199.615 106.891 199.185 105.691 198.325C104.511 197.445 103.851 196.255 103.711 194.755H105.871C105.971 195.675 106.401 196.425 107.161 197.005C107.941 197.565 108.981 197.845 110.281 197.845C111.421 197.845 112.311 197.575 112.951 197.035C113.611 196.495 113.941 195.825 113.941 195.025C113.941 194.465 113.761 194.005 113.401 193.645C113.041 193.285 112.581 193.005 112.021 192.805C111.481 192.585 110.741 192.355 109.801 192.115C108.581 191.795 107.591 191.475 106.831 191.155C106.071 190.835 105.421 190.365 104.881 189.745C104.361 189.105 104.101 188.255 104.101 187.195C104.101 186.395 104.341 185.655 104.821 184.975C105.301 184.295 105.981 183.755 106.861 183.355C107.741 182.955 108.741 182.755 109.861 182.755C111.621 182.755 113.041 183.205 114.121 184.105C115.201 184.985 115.781 186.205 115.861 187.765H113.761C113.701 186.805 113.321 186.035 112.621 185.455C111.941 184.855 111.001 184.555 109.801 184.555C108.741 184.555 107.881 184.805 107.221 185.305C106.561 185.805 106.231 186.425 106.231 187.165C106.231 187.805 106.421 188.335 106.801 188.755C107.201 189.155 107.691 189.475 108.271 189.715C108.851 189.935 109.631 190.185 110.611 190.465C111.791 190.785 112.731 191.095 113.431 191.395C114.131 191.695 114.731 192.135 115.231 192.715C115.731 193.295 115.991 194.065 116.011 195.025C116.011 195.905 115.771 196.695 115.291 197.395C114.811 198.075 114.141 198.615 113.281 199.015C112.421 199.415 111.431 199.615 110.311 199.615ZM125.604 199.615C123.724 199.615 122.184 199.185 120.984 198.325C119.804 197.445 119.144 196.255 119.004 194.755H121.164C121.264 195.675 121.694 196.425 122.454 197.005C123.234 197.565 124.274 197.845 125.574 197.845C126.714 197.845 127.604 197.575 128.244 197.035C128.904 196.495 129.234 195.825 129.234 195.025C129.234 194.465 129.054 194.005 128.694 193.645C128.334 193.285 127.874 193.005 127.314 192.805C126.774 192.585 126.034 192.355 125.094 192.115C123.874 191.795 122.884 191.475 122.124 191.155C121.364 190.835 120.714 190.365 120.174 189.745C119.654 189.105 119.394 188.255 119.394 187.195C119.394 186.395 119.634 185.655 120.114 184.975C120.594 184.295 121.274 183.755 122.154 183.355C123.034 182.955 124.034 182.755 125.154 182.755C126.914 182.755 128.334 183.205 129.414 184.105C130.494 184.985 131.074 186.205 131.154 187.765H129.054C128.994 186.805 128.614 186.035 127.914 185.455C127.234 184.855 126.294 184.555 125.094 184.555C124.034 184.555 123.174 184.805 122.514 185.305C121.854 185.805 121.524 186.425 121.524 187.165C121.524 187.805 121.714 188.335 122.094 188.755C122.494 189.155 122.984 189.475 123.564 189.715C124.144 189.935 124.924 190.185 125.904 190.465C127.084 190.785 128.024 191.095 128.724 191.395C129.424 191.695 130.024 192.135 130.524 192.715C131.024 193.295 131.284 194.065 131.304 195.025C131.304 195.905 131.064 196.695 130.584 197.395C130.104 198.075 129.434 198.615 128.574 199.015C127.714 199.415 126.724 199.615 125.604 199.615Z" fill="black"/>
<path d="M115.951 36.1953H93.4741V30.8438C93.46 27.7256 92.2151 24.7391 90.0102 22.5342C87.8053 20.3293 84.8189 19.0844 81.7007 19.0703H56.0132C52.895 19.0844 49.9086 20.3293 47.7037 22.5342C45.4988 24.7391 44.2538 27.7256 44.2397 30.8438V36.1953H21.7632C19.7761 36.1953 17.8705 36.9847 16.4654 38.3897C15.0603 39.7948 14.271 41.7004 14.271 43.6875V112.188C14.271 114.175 15.0603 116.08 16.4654 117.485C17.8705 118.89 19.7761 119.68 21.7632 119.68H115.951C117.938 119.68 119.843 118.89 121.248 117.485C122.654 116.08 123.443 114.175 123.443 112.188V43.6875C123.443 41.7004 122.654 39.7948 121.248 38.3897C119.843 36.9847 117.938 36.1953 115.951 36.1953ZM50.6616 30.8438C50.6616 29.4244 51.2254 28.0632 52.2291 27.0596C53.2327 26.056 54.5939 25.4922 56.0132 25.4922H81.7007C83.12 25.4922 84.4812 26.056 85.4848 27.0596C86.4884 28.0632 87.0522 29.4244 87.0522 30.8438V36.1953H50.6616V30.8438ZM21.7632 42.6172H115.951C116.235 42.6172 116.507 42.73 116.708 42.9307C116.908 43.1314 117.021 43.4036 117.021 43.6875V66.5922C102.279 74.7486 85.7048 79.0211 68.8569 79.0078C52.01 79.0141 35.4374 74.742 20.6929 66.5922V43.6875C20.6929 43.4036 20.8056 43.1314 21.0064 42.9307C21.2071 42.73 21.4793 42.6172 21.7632 42.6172ZM115.951 113.258H21.7632C21.4793 113.258 21.2071 113.145 21.0064 112.944C20.8056 112.744 20.6929 112.471 20.6929 112.188V73.8703C35.6138 81.461 52.1162 85.4216 68.8569 85.4297C85.5977 85.4216 102.1 81.461 117.021 73.8703V112.188C117.021 112.471 116.908 112.744 116.708 112.944C116.507 113.145 116.235 113.258 115.951 113.258ZM59.2241 65.0938C59.2241 64.2422 59.5624 63.4254 60.1646 62.8233C60.7668 62.2211 61.5835 61.8828 62.4351 61.8828H75.2788C76.1304 61.8828 76.9471 62.2211 77.5493 62.8233C78.1515 63.4254 78.4897 64.2422 78.4897 65.0938C78.4897 65.9453 78.1515 66.7621 77.5493 67.3642C76.9471 67.9664 76.1304 68.3047 75.2788 68.3047H62.4351C61.5835 68.3047 60.7668 67.9664 60.1646 67.3642C59.5624 66.7621 59.2241 65.9453 59.2241 65.0938Z" fill="#121212"/>
</svg>
