<svg width="512" height="635" viewBox="0 0 512 635" fill="none" xmlns="http://www.w3.org/2000/svg">
<rect width="512" height="635" fill="#F8F7F7"/>
<path d="M86.736 50.64V84H81.264V61.152L71.088 84H67.296L57.072 61.152V84H51.6V50.64H57.504L69.216 76.8L80.88 50.64H86.736ZM117.736 57.552L101.512 96.432H95.8481L101.224 83.568L90.8081 57.552H96.9041L104.344 77.712L112.072 57.552H117.736ZM157.662 60.576C157.662 62.272 157.262 63.872 156.462 65.376C155.662 66.88 154.382 68.112 152.622 69.072C150.862 70 148.606 70.464 145.854 70.464H139.806V84H134.334V50.64H145.854C148.414 50.64 150.574 51.088 152.334 51.984C154.126 52.848 155.454 54.032 156.318 55.536C157.214 57.04 157.662 58.72 157.662 60.576ZM145.854 66C147.934 66 149.486 65.536 150.51 64.608C151.534 63.648 152.046 62.304 152.046 60.576C152.046 56.928 149.982 55.104 145.854 55.104H139.806V66H145.854ZM161.057 70.656C161.057 68 161.601 65.648 162.689 63.6C163.809 61.552 165.313 59.968 167.201 58.848C169.121 57.696 171.233 57.12 173.537 57.12C175.617 57.12 177.425 57.536 178.961 58.368C180.529 59.168 181.777 60.176 182.705 61.392V57.552H188.225V84H182.705V80.064C181.777 81.312 180.513 82.352 178.913 83.184C177.313 84.016 175.489 84.432 173.441 84.432C171.169 84.432 169.089 83.856 167.201 82.704C165.313 81.52 163.809 79.888 162.689 77.808C161.601 75.696 161.057 73.312 161.057 70.656ZM182.705 70.752C182.705 68.928 182.321 67.344 181.553 66C180.817 64.656 179.841 63.632 178.625 62.928C177.409 62.224 176.097 61.872 174.689 61.872C173.281 61.872 171.969 62.224 170.753 62.928C169.537 63.6 168.545 64.608 167.777 65.952C167.041 67.264 166.673 68.832 166.673 70.656C166.673 72.48 167.041 74.08 167.777 75.456C168.545 76.832 169.537 77.888 170.753 78.624C172.001 79.328 173.313 79.68 174.689 79.68C176.097 79.68 177.409 79.328 178.625 78.624C179.841 77.92 180.817 76.896 181.553 75.552C182.321 74.176 182.705 72.576 182.705 70.752ZM200.885 48.48V84H195.413V48.48H200.885ZM232.309 70.128C232.309 71.12 232.245 72.016 232.117 72.816H211.909C212.069 74.928 212.853 76.624 214.261 77.904C215.669 79.184 217.397 79.824 219.445 79.824C222.389 79.824 224.469 78.592 225.685 76.128H231.589C230.789 78.56 229.333 80.56 227.221 82.128C225.141 83.664 222.549 84.432 219.445 84.432C216.917 84.432 214.645 83.872 212.629 82.752C210.645 81.6 209.077 80 207.925 77.952C206.805 75.872 206.245 73.472 206.245 70.752C206.245 68.032 206.789 65.648 207.877 63.6C208.997 61.52 210.549 59.92 212.533 58.8C214.549 57.68 216.853 57.12 219.445 57.12C221.941 57.12 224.165 57.664 226.117 58.752C228.069 59.84 229.589 61.376 230.677 63.36C231.765 65.312 232.309 67.568 232.309 70.128ZM226.597 68.4C226.565 66.384 225.845 64.768 224.437 63.552C223.029 62.336 221.285 61.728 219.205 61.728C217.317 61.728 215.701 62.336 214.357 63.552C213.013 64.736 212.213 66.352 211.957 68.4H226.597ZM244.078 62.016V76.656C244.078 77.648 244.302 78.368 244.75 78.816C245.23 79.232 246.03 79.44 247.15 79.44H250.51V84H246.19C243.726 84 241.838 83.424 240.526 82.272C239.214 81.12 238.558 79.248 238.558 76.656V62.016H235.438V57.552H238.558V50.976H244.078V57.552H250.51V62.016H244.078ZM261.937 62.016V76.656C261.937 77.648 262.161 78.368 262.609 78.816C263.089 79.232 263.889 79.44 265.009 79.44H268.369V84H264.049C261.585 84 259.697 83.424 258.385 82.272C257.073 81.12 256.417 79.248 256.417 76.656V62.016H253.297V57.552H256.417V50.976H261.937V57.552H268.369V62.016H261.937ZM297.653 70.128C297.653 71.12 297.589 72.016 297.461 72.816H277.253C277.413 74.928 278.197 76.624 279.605 77.904C281.013 79.184 282.741 79.824 284.789 79.824C287.733 79.824 289.813 78.592 291.029 76.128H296.932C296.133 78.56 294.677 80.56 292.565 82.128C290.485 83.664 287.893 84.432 284.789 84.432C282.261 84.432 279.989 83.872 277.973 82.752C275.989 81.6 274.421 80 273.269 77.952C272.149 75.872 271.589 73.472 271.589 70.752C271.589 68.032 272.133 65.648 273.221 63.6C274.341 61.52 275.893 59.92 277.877 58.8C279.893 57.68 282.197 57.12 284.789 57.12C287.285 57.12 289.509 57.664 291.461 58.752C293.413 59.84 294.933 61.376 296.021 63.36C297.109 65.312 297.653 67.568 297.653 70.128ZM291.941 68.4C291.909 66.384 291.189 64.768 289.781 63.552C288.373 62.336 286.629 61.728 284.549 61.728C282.661 61.728 281.045 62.336 279.701 63.552C278.357 64.736 277.557 66.352 277.301 68.4H291.941ZM320.978 50.64V84H315.506V50.64H320.978ZM337.763 84.432C335.683 84.432 333.811 84.064 332.147 83.328C330.515 82.56 329.219 81.536 328.259 80.256C327.299 78.944 326.787 77.488 326.723 75.888H332.387C332.483 77.008 333.011 77.952 333.971 78.72C334.963 79.456 336.195 79.824 337.667 79.824C339.203 79.824 340.387 79.536 341.219 78.96C342.083 78.352 342.515 77.584 342.515 76.656C342.515 75.664 342.035 74.928 341.075 74.448C340.147 73.968 338.659 73.44 336.611 72.864C334.627 72.32 333.011 71.792 331.763 71.28C330.515 70.768 329.427 69.984 328.499 68.928C327.603 67.872 327.155 66.48 327.155 64.752C327.155 63.344 327.571 62.064 328.403 60.912C329.235 59.728 330.419 58.8 331.955 58.128C333.523 57.456 335.315 57.12 337.331 57.12C340.339 57.12 342.755 57.888 344.579 59.424C346.435 60.928 347.427 62.992 347.555 65.616H342.083C341.987 64.432 341.507 63.488 340.643 62.784C339.779 62.08 338.611 61.728 337.139 61.728C335.699 61.728 334.595 62 333.827 62.544C333.059 63.088 332.675 63.808 332.675 64.704C332.675 65.408 332.931 66 333.443 66.48C333.955 66.96 334.579 67.344 335.315 67.632C336.051 67.888 337.139 68.224 338.579 68.64C340.499 69.152 342.067 69.68 343.283 70.224C344.531 70.736 345.603 71.504 346.499 72.528C347.395 73.552 347.859 74.912 347.891 76.608C347.891 78.112 347.475 79.456 346.643 80.64C345.811 81.824 344.627 82.752 343.091 83.424C341.587 84.096 339.811 84.432 337.763 84.432ZM356.011 84.336C355.019 84.336 354.187 84 353.515 83.328C352.843 82.656 352.507 81.824 352.507 80.832C352.507 79.84 352.843 79.008 353.515 78.336C354.187 77.664 355.019 77.328 356.011 77.328C356.971 77.328 357.787 77.664 358.459 78.336C359.131 79.008 359.467 79.84 359.467 80.832C359.467 81.824 359.131 82.656 358.459 83.328C357.787 84 356.971 84.336 356.011 84.336ZM356.011 64.176C355.019 64.176 354.187 63.84 353.515 63.168C352.843 62.496 352.507 61.664 352.507 60.672C352.507 59.68 352.843 58.848 353.515 58.176C354.187 57.504 355.019 57.168 356.011 57.168C356.971 57.168 357.787 57.504 358.459 58.176C359.131 58.848 359.467 59.68 359.467 60.672C359.467 61.664 359.131 62.496 358.459 63.168C357.787 63.84 356.971 64.176 356.011 64.176Z" fill="#212121"/>
<path d="M86.736 324.64V358H81.264V335.152L71.088 358H67.296L57.072 335.152V358H51.6V324.64H57.504L69.216 350.8L80.88 324.64H86.736ZM117.736 331.552L101.512 370.432H95.8481L101.224 357.568L90.8081 331.552H96.9041L104.344 351.712L112.072 331.552H117.736ZM145.326 358.336C143.086 358.336 141.07 357.952 139.278 357.184C137.486 356.384 136.078 355.264 135.054 353.824C134.03 352.384 133.518 350.704 133.518 348.784H139.374C139.502 350.224 140.062 351.408 141.054 352.336C142.078 353.264 143.502 353.728 145.326 353.728C147.214 353.728 148.686 353.28 149.742 352.384C150.798 351.456 151.326 350.272 151.326 348.832C151.326 347.712 150.99 346.8 150.318 346.096C149.678 345.392 148.862 344.848 147.87 344.464C146.91 344.08 145.566 343.664 143.838 343.216C141.662 342.64 139.886 342.064 138.51 341.488C137.166 340.88 136.014 339.952 135.054 338.704C134.094 337.456 133.614 335.792 133.614 333.712C133.614 331.792 134.094 330.112 135.054 328.672C136.014 327.232 137.358 326.128 139.086 325.36C140.814 324.592 142.814 324.208 145.086 324.208C148.318 324.208 150.958 325.024 153.006 326.656C155.086 328.256 156.238 330.464 156.462 333.28H150.414C150.318 332.064 149.742 331.024 148.686 330.16C147.63 329.296 146.238 328.864 144.51 328.864C142.942 328.864 141.662 329.264 140.67 330.064C139.678 330.864 139.182 332.016 139.182 333.52C139.182 334.544 139.486 335.392 140.094 336.064C140.734 336.704 141.534 337.216 142.494 337.6C143.454 337.984 144.766 338.4 146.43 338.848C148.638 339.456 150.43 340.064 151.806 340.672C153.214 341.28 154.398 342.224 155.358 343.504C156.35 344.752 156.846 346.432 156.846 348.544C156.846 350.24 156.382 351.84 155.454 353.344C154.558 354.848 153.23 356.064 151.47 356.992C149.742 357.888 147.694 358.336 145.326 358.336ZM169.687 336.016V350.656C169.687 351.648 169.911 352.368 170.359 352.816C170.839 353.232 171.639 353.44 172.759 353.44H176.119V358H171.799C169.335 358 167.447 357.424 166.135 356.272C164.823 355.12 164.167 353.248 164.167 350.656V336.016H161.047V331.552H164.167V324.976H169.687V331.552H176.119V336.016H169.687ZM204.971 331.552L188.747 370.432H183.083L188.459 357.568L178.043 331.552H184.139L191.579 351.712L199.307 331.552H204.971ZM214.572 322.48V358H209.1V322.48H214.572ZM245.996 344.128C245.996 345.12 245.932 346.016 245.804 346.816H225.596C225.756 348.928 226.54 350.624 227.948 351.904C229.356 353.184 231.084 353.824 233.132 353.824C236.076 353.824 238.156 352.592 239.372 350.128H245.276C244.476 352.56 243.02 354.56 240.908 356.128C238.828 357.664 236.236 358.432 233.132 358.432C230.604 358.432 228.332 357.872 226.316 356.752C224.332 355.6 222.764 354 221.612 351.952C220.492 349.872 219.932 347.472 219.932 344.752C219.932 342.032 220.476 339.648 221.564 337.6C222.684 335.52 224.236 333.92 226.22 332.8C228.236 331.68 230.54 331.12 233.132 331.12C235.628 331.12 237.852 331.664 239.804 332.752C241.756 333.84 243.276 335.376 244.364 337.36C245.452 339.312 245.996 341.568 245.996 344.128ZM240.284 342.4C240.252 340.384 239.532 338.768 238.124 337.552C236.716 336.336 234.972 335.728 232.892 335.728C231.004 335.728 229.388 336.336 228.044 337.552C226.7 338.736 225.9 340.352 225.644 342.4H240.284ZM269.322 324.64V358H263.85V324.64H269.322ZM286.106 358.432C284.026 358.432 282.154 358.064 280.49 357.328C278.858 356.56 277.562 355.536 276.602 354.256C275.642 352.944 275.13 351.488 275.066 349.888H280.73C280.826 351.008 281.354 351.952 282.314 352.72C283.306 353.456 284.538 353.824 286.01 353.824C287.546 353.824 288.73 353.536 289.562 352.96C290.426 352.352 290.858 351.584 290.858 350.656C290.858 349.664 290.378 348.928 289.418 348.448C288.49 347.968 287.002 347.44 284.954 346.864C282.97 346.32 281.354 345.792 280.106 345.28C278.858 344.768 277.77 343.984 276.842 342.928C275.946 341.872 275.498 340.48 275.498 338.752C275.498 337.344 275.914 336.064 276.746 334.912C277.578 333.728 278.762 332.8 280.298 332.128C281.866 331.456 283.658 331.12 285.674 331.12C288.682 331.12 291.098 331.888 292.922 333.424C294.778 334.928 295.77 336.992 295.898 339.616H290.426C290.33 338.432 289.85 337.488 288.986 336.784C288.122 336.08 286.954 335.728 285.482 335.728C284.042 335.728 282.938 336 282.17 336.544C281.402 337.088 281.018 337.808 281.018 338.704C281.018 339.408 281.274 340 281.786 340.48C282.298 340.96 282.922 341.344 283.658 341.632C284.394 341.888 285.482 342.224 286.922 342.64C288.842 343.152 290.41 343.68 291.626 344.224C292.874 344.736 293.946 345.504 294.842 346.528C295.738 347.552 296.202 348.912 296.234 350.608C296.234 352.112 295.818 353.456 294.986 354.64C294.154 355.824 292.97 356.752 291.434 357.424C289.93 358.096 288.154 358.432 286.106 358.432ZM304.355 358.336C303.363 358.336 302.531 358 301.859 357.328C301.187 356.656 300.851 355.824 300.851 354.832C300.851 353.84 301.187 353.008 301.859 352.336C302.531 351.664 303.363 351.328 304.355 351.328C305.315 351.328 306.131 351.664 306.803 352.336C307.475 353.008 307.811 353.84 307.811 354.832C307.811 355.824 307.475 356.656 306.803 357.328C306.131 358 305.315 358.336 304.355 358.336ZM304.355 338.176C303.363 338.176 302.531 337.84 301.859 337.168C301.187 336.496 300.851 335.664 300.851 334.672C300.851 333.68 301.187 332.848 301.859 332.176C302.531 331.504 303.363 331.168 304.355 331.168C305.315 331.168 306.131 331.504 306.803 332.176C307.475 332.848 307.811 333.68 307.811 334.672C307.811 335.664 307.475 336.496 306.803 337.168C306.131 337.84 305.315 338.176 304.355 338.176Z" fill="#212121"/>
<path d="M64.768 465.76V468.736H58.848V488H55.2V468.736H49.248V465.76H64.768ZM76.1105 488.288C74.4465 488.288 72.9425 487.915 71.5985 487.168C70.2545 486.4 69.1985 485.333 68.4305 483.968C67.6625 482.581 67.2785 480.981 67.2785 479.168C67.2785 477.376 67.6732 475.787 68.4625 474.4C69.2518 473.013 70.3292 471.947 71.6945 471.2C73.0598 470.453 74.5852 470.08 76.2705 470.08C77.9558 470.08 79.4812 470.453 80.8465 471.2C82.2118 471.947 83.2892 473.013 84.0785 474.4C84.8678 475.787 85.2625 477.376 85.2625 479.168C85.2625 480.96 84.8572 482.549 84.0465 483.936C83.2358 485.323 82.1265 486.4 80.7185 487.168C79.3318 487.915 77.7958 488.288 76.1105 488.288ZM76.1105 485.12C77.0492 485.12 77.9238 484.896 78.7345 484.448C79.5665 484 80.2385 483.328 80.7505 482.432C81.2625 481.536 81.5185 480.448 81.5185 479.168C81.5185 477.888 81.2732 476.811 80.7825 475.936C80.2918 475.04 79.6412 474.368 78.8305 473.92C78.0198 473.472 77.1452 473.248 76.2065 473.248C75.2678 473.248 74.3932 473.472 73.5825 473.92C72.7932 474.368 72.1638 475.04 71.6945 475.936C71.2252 476.811 70.9905 477.888 70.9905 479.168C70.9905 481.067 71.4705 482.539 72.4305 483.584C73.4118 484.608 74.6385 485.12 76.1105 485.12ZM92.5168 472.96C93.1354 472.149 93.9781 471.467 95.0448 470.912C96.1114 470.357 97.3168 470.08 98.6608 470.08C100.197 470.08 101.594 470.464 102.853 471.232C104.133 471.979 105.135 473.035 105.861 474.4C106.586 475.765 106.949 477.333 106.949 479.104C106.949 480.875 106.586 482.464 105.861 483.872C105.135 485.259 104.133 486.347 102.853 487.136C101.594 487.904 100.197 488.288 98.6608 488.288C97.3168 488.288 96.1221 488.021 95.0768 487.488C94.0314 486.933 93.1781 486.251 92.5168 485.44V496.384H88.8688V470.368H92.5168V472.96ZM103.237 479.104C103.237 477.888 102.981 476.843 102.469 475.968C101.978 475.072 101.317 474.4 100.485 473.952C99.6741 473.483 98.7994 473.248 97.8608 473.248C96.9434 473.248 96.0688 473.483 95.2368 473.952C94.4261 474.421 93.7648 475.104 93.2528 476C92.7621 476.896 92.5168 477.952 92.5168 479.168C92.5168 480.384 92.7621 481.451 93.2528 482.368C93.7648 483.264 94.4261 483.947 95.2368 484.416C96.0688 484.885 96.9434 485.12 97.8608 485.12C98.7994 485.12 99.6741 484.885 100.485 484.416C101.317 483.925 101.978 483.221 102.469 482.304C102.981 481.387 103.237 480.32 103.237 479.104ZM130.421 488L125.301 479.104H122.517V488H118.869V465.76H126.549C128.255 465.76 129.695 466.059 130.869 466.656C132.063 467.253 132.949 468.053 133.525 469.056C134.122 470.059 134.421 471.179 134.421 472.416C134.421 473.867 133.994 475.189 133.141 476.384C132.309 477.557 131.018 478.357 129.269 478.784L134.773 488H130.421ZM122.517 476.192H126.549C127.914 476.192 128.938 475.851 129.621 475.168C130.325 474.485 130.677 473.568 130.677 472.416C130.677 471.264 130.335 470.368 129.653 469.728C128.97 469.067 127.935 468.736 126.549 468.736H122.517V476.192ZM155.248 478.752C155.248 479.413 155.205 480.011 155.12 480.544H141.648C141.754 481.952 142.277 483.083 143.216 483.936C144.154 484.789 145.306 485.216 146.672 485.216C148.634 485.216 150.021 484.395 150.832 482.752H154.767C154.234 484.373 153.264 485.707 151.856 486.752C150.469 487.776 148.741 488.288 146.672 488.288C144.986 488.288 143.472 487.915 142.128 487.168C140.805 486.4 139.76 485.333 138.992 483.968C138.245 482.581 137.872 480.981 137.872 479.168C137.872 477.355 138.234 475.765 138.96 474.4C139.706 473.013 140.741 471.947 142.064 471.2C143.408 470.453 144.944 470.08 146.672 470.08C148.336 470.08 149.818 470.443 151.12 471.168C152.421 471.893 153.434 472.917 154.16 474.24C154.885 475.541 155.248 477.045 155.248 478.752ZM151.44 477.6C151.418 476.256 150.938 475.179 150 474.368C149.061 473.557 147.898 473.152 146.512 473.152C145.253 473.152 144.176 473.557 143.28 474.368C142.384 475.157 141.85 476.235 141.68 477.6H151.44ZM157.622 479.168C157.622 477.355 157.984 475.765 158.71 474.4C159.456 473.013 160.48 471.947 161.782 471.2C163.083 470.453 164.576 470.08 166.262 470.08C168.395 470.08 170.155 470.592 171.542 471.616C172.95 472.619 173.899 474.059 174.39 475.936H170.454C170.134 475.061 169.622 474.379 168.918 473.888C168.214 473.397 167.328 473.152 166.262 473.152C164.768 473.152 163.574 473.685 162.678 474.752C161.803 475.797 161.366 477.269 161.366 479.168C161.366 481.067 161.803 482.549 162.678 483.616C163.574 484.683 164.768 485.216 166.262 485.216C168.374 485.216 169.771 484.288 170.454 482.432H174.39C173.878 484.224 172.918 485.653 171.51 486.72C170.102 487.765 168.352 488.288 166.262 488.288C164.576 488.288 163.083 487.915 161.782 487.168C160.48 486.4 159.456 485.333 158.71 483.968C157.984 482.581 157.622 480.981 157.622 479.168ZM185.673 488.288C184.009 488.288 182.505 487.915 181.161 487.168C179.817 486.4 178.761 485.333 177.993 483.968C177.225 482.581 176.841 480.981 176.841 479.168C176.841 477.376 177.236 475.787 178.025 474.4C178.814 473.013 179.892 471.947 181.257 471.2C182.622 470.453 184.148 470.08 185.833 470.08C187.518 470.08 189.044 470.453 190.409 471.2C191.774 471.947 192.852 473.013 193.641 474.4C194.43 475.787 194.825 477.376 194.825 479.168C194.825 480.96 194.42 482.549 193.609 483.936C192.798 485.323 191.689 486.4 190.281 487.168C188.894 487.915 187.358 488.288 185.673 488.288ZM185.673 485.12C186.612 485.12 187.486 484.896 188.297 484.448C189.129 484 189.801 483.328 190.313 482.432C190.825 481.536 191.081 480.448 191.081 479.168C191.081 477.888 190.836 476.811 190.345 475.936C189.854 475.04 189.204 474.368 188.393 473.92C187.582 473.472 186.708 473.248 185.769 473.248C184.83 473.248 183.956 473.472 183.145 473.92C182.356 474.368 181.726 475.04 181.257 475.936C180.788 476.811 180.553 477.888 180.553 479.168C180.553 481.067 181.033 482.539 181.993 483.584C182.974 484.608 184.201 485.12 185.673 485.12ZM219.775 470.08C221.162 470.08 222.399 470.368 223.487 470.944C224.597 471.52 225.461 472.373 226.079 473.504C226.719 474.635 227.039 476 227.039 477.6V488H223.423V478.144C223.423 476.565 223.029 475.36 222.239 474.528C221.45 473.675 220.373 473.248 219.007 473.248C217.642 473.248 216.554 473.675 215.743 474.528C214.954 475.36 214.559 476.565 214.559 478.144V488H210.943V478.144C210.943 476.565 210.549 475.36 209.759 474.528C208.97 473.675 207.893 473.248 206.527 473.248C205.162 473.248 204.074 473.675 203.263 474.528C202.474 475.36 202.079 476.565 202.079 478.144V488H198.431V470.368H202.079V472.384C202.677 471.659 203.434 471.093 204.351 470.688C205.269 470.283 206.25 470.08 207.295 470.08C208.703 470.08 209.962 470.379 211.071 470.976C212.181 471.573 213.034 472.437 213.631 473.568C214.165 472.501 214.997 471.659 216.127 471.04C217.258 470.4 218.474 470.08 219.775 470.08ZM253.025 470.08C254.412 470.08 255.649 470.368 256.737 470.944C257.847 471.52 258.711 472.373 259.329 473.504C259.969 474.635 260.289 476 260.289 477.6V488H256.673V478.144C256.673 476.565 256.279 475.36 255.489 474.528C254.7 473.675 253.623 473.248 252.257 473.248C250.892 473.248 249.804 473.675 248.993 474.528C248.204 475.36 247.809 476.565 247.809 478.144V488H244.193V478.144C244.193 476.565 243.799 475.36 243.009 474.528C242.22 473.675 241.143 473.248 239.777 473.248C238.412 473.248 237.324 473.675 236.513 474.528C235.724 475.36 235.329 476.565 235.329 478.144V488H231.681V470.368H235.329V472.384C235.927 471.659 236.684 471.093 237.601 470.688C238.519 470.283 239.5 470.08 240.545 470.08C241.953 470.08 243.212 470.379 244.321 470.976C245.431 471.573 246.284 472.437 246.881 473.568C247.415 472.501 248.247 471.659 249.377 471.04C250.508 470.4 251.724 470.08 253.025 470.08ZM281.091 478.752C281.091 479.413 281.049 480.011 280.963 480.544H267.491C267.598 481.952 268.121 483.083 269.059 483.936C269.998 484.789 271.15 485.216 272.515 485.216C274.478 485.216 275.865 484.395 276.675 482.752H280.611C280.078 484.373 279.107 485.707 277.699 486.752C276.313 487.776 274.585 488.288 272.515 488.288C270.83 488.288 269.315 487.915 267.971 487.168C266.649 486.4 265.603 485.333 264.835 483.968C264.089 482.581 263.715 480.981 263.715 479.168C263.715 477.355 264.078 475.765 264.803 474.4C265.55 473.013 266.585 471.947 267.907 471.2C269.251 470.453 270.787 470.08 272.515 470.08C274.179 470.08 275.662 470.443 276.963 471.168C278.265 471.893 279.278 472.917 280.003 474.24C280.729 475.541 281.091 477.045 281.091 478.752ZM277.283 477.6C277.262 476.256 276.782 475.179 275.843 474.368C274.905 473.557 273.742 473.152 272.355 473.152C271.097 473.152 270.019 473.557 269.123 474.368C268.227 475.157 267.694 476.235 267.523 477.6H277.283ZM293.577 470.08C294.964 470.08 296.201 470.368 297.289 470.944C298.399 471.52 299.263 472.373 299.881 473.504C300.5 474.635 300.809 476 300.809 477.6V488H297.193V478.144C297.193 476.565 296.799 475.36 296.009 474.528C295.22 473.675 294.143 473.248 292.777 473.248C291.412 473.248 290.324 473.675 289.513 474.528C288.724 475.36 288.329 476.565 288.329 478.144V488H284.681V470.368H288.329V472.384C288.927 471.659 289.684 471.093 290.601 470.688C291.54 470.283 292.532 470.08 293.577 470.08ZM304.247 479.104C304.247 477.333 304.609 475.765 305.335 474.4C306.081 473.035 307.084 471.979 308.343 471.232C309.623 470.464 311.041 470.08 312.599 470.08C313.751 470.08 314.881 470.336 315.991 470.848C317.121 471.339 318.017 472 318.679 472.832V464.32H322.359V488H318.679V485.344C318.081 486.197 317.249 486.901 316.183 487.456C315.137 488.011 313.932 488.288 312.567 488.288C311.031 488.288 309.623 487.904 308.343 487.136C307.084 486.347 306.081 485.259 305.335 483.872C304.609 482.464 304.247 480.875 304.247 479.104ZM318.679 479.168C318.679 477.952 318.423 476.896 317.911 476C317.42 475.104 316.769 474.421 315.959 473.952C315.148 473.483 314.273 473.248 313.335 473.248C312.396 473.248 311.521 473.483 310.711 473.952C309.9 474.4 309.239 475.072 308.727 475.968C308.236 476.843 307.991 477.888 307.991 479.104C307.991 480.32 308.236 481.387 308.727 482.304C309.239 483.221 309.9 483.925 310.711 484.416C311.543 484.885 312.417 485.12 313.335 485.12C314.273 485.12 315.148 484.885 315.959 484.416C316.769 483.947 317.42 483.264 317.911 482.368C318.423 481.451 318.679 480.384 318.679 479.168ZM325.934 479.104C325.934 477.333 326.297 475.765 327.022 474.4C327.769 473.035 328.771 471.979 330.03 471.232C331.31 470.464 332.718 470.08 334.254 470.08C335.641 470.08 336.846 470.357 337.87 470.912C338.915 471.445 339.747 472.117 340.366 472.928V470.368H344.046V488H340.366V485.376C339.747 486.208 338.905 486.901 337.838 487.456C336.771 488.011 335.555 488.288 334.19 488.288C332.675 488.288 331.289 487.904 330.03 487.136C328.771 486.347 327.769 485.259 327.022 483.872C326.297 482.464 325.934 480.875 325.934 479.104ZM340.366 479.168C340.366 477.952 340.11 476.896 339.598 476C339.107 475.104 338.457 474.421 337.646 473.952C336.835 473.483 335.961 473.248 335.022 473.248C334.083 473.248 333.209 473.483 332.398 473.952C331.587 474.4 330.926 475.072 330.414 475.968C329.923 476.843 329.678 477.888 329.678 479.104C329.678 480.32 329.923 481.387 330.414 482.304C330.926 483.221 331.587 483.925 332.398 484.416C333.23 484.885 334.105 485.12 335.022 485.12C335.961 485.12 336.835 484.885 337.646 484.416C338.457 483.947 339.107 483.264 339.598 482.368C340.11 481.451 340.366 480.384 340.366 479.168ZM353.094 473.344V483.104C353.094 483.765 353.243 484.245 353.542 484.544C353.862 484.821 354.395 484.96 355.142 484.96H357.382V488H354.502C352.859 488 351.6 487.616 350.726 486.848C349.851 486.08 349.414 484.832 349.414 483.104V473.344H347.334V470.368H349.414V465.984H353.094V470.368H357.382V473.344H353.094ZM362.6 468.032C361.938 468.032 361.384 467.808 360.936 467.36C360.488 466.912 360.264 466.357 360.264 465.696C360.264 465.035 360.488 464.48 360.936 464.032C361.384 463.584 361.938 463.36 362.6 463.36C363.24 463.36 363.784 463.584 364.232 464.032C364.68 464.48 364.904 465.035 364.904 465.696C364.904 466.357 364.68 466.912 364.232 467.36C363.784 467.808 363.24 468.032 362.6 468.032ZM364.392 470.368V488H360.744V470.368H364.392ZM376.829 488.288C375.165 488.288 373.661 487.915 372.317 487.168C370.973 486.4 369.917 485.333 369.149 483.968C368.381 482.581 367.997 480.981 367.997 479.168C367.997 477.376 368.392 475.787 369.181 474.4C369.971 473.013 371.048 471.947 372.413 471.2C373.779 470.453 375.304 470.08 376.989 470.08C378.675 470.08 380.2 470.453 381.565 471.2C382.931 471.947 384.008 473.013 384.797 474.4C385.587 475.787 385.981 477.376 385.981 479.168C385.981 480.96 385.576 482.549 384.765 483.936C383.955 485.323 382.845 486.4 381.437 487.168C380.051 487.915 378.515 488.288 376.829 488.288ZM376.829 485.12C377.768 485.12 378.643 484.896 379.453 484.448C380.285 484 380.957 483.328 381.469 482.432C381.981 481.536 382.237 480.448 382.237 479.168C382.237 477.888 381.992 476.811 381.501 475.936C381.011 475.04 380.36 474.368 379.549 473.92C378.739 473.472 377.864 473.248 376.925 473.248C375.987 473.248 375.112 473.472 374.301 473.92C373.512 474.368 372.883 475.04 372.413 475.936C371.944 476.811 371.709 477.888 371.709 479.168C371.709 481.067 372.189 482.539 373.149 483.584C374.131 484.608 375.357 485.12 376.829 485.12ZM398.484 470.08C399.87 470.08 401.108 470.368 402.196 470.944C403.305 471.52 404.169 472.373 404.788 473.504C405.406 474.635 405.716 476 405.716 477.6V488H402.1V478.144C402.1 476.565 401.705 475.36 400.916 474.528C400.126 473.675 399.049 473.248 397.684 473.248C396.318 473.248 395.23 473.675 394.42 474.528C393.63 475.36 393.236 476.565 393.236 478.144V488H389.588V470.368H393.236V472.384C393.833 471.659 394.59 471.093 395.508 470.688C396.446 470.283 397.438 470.08 398.484 470.08ZM416.769 488.288C415.382 488.288 414.134 488.043 413.025 487.552C411.937 487.04 411.073 486.357 410.433 485.504C409.793 484.629 409.451 483.659 409.409 482.592H413.185C413.249 483.339 413.601 483.968 414.241 484.48C414.902 484.971 415.723 485.216 416.705 485.216C417.729 485.216 418.518 485.024 419.073 484.64C419.649 484.235 419.937 483.723 419.937 483.104C419.937 482.443 419.617 481.952 418.977 481.632C418.358 481.312 417.366 480.96 416.001 480.576C414.678 480.213 413.601 479.861 412.769 479.52C411.937 479.179 411.211 478.656 410.593 477.952C409.995 477.248 409.697 476.32 409.697 475.168C409.697 474.229 409.974 473.376 410.529 472.608C411.083 471.819 411.873 471.2 412.897 470.752C413.942 470.304 415.137 470.08 416.481 470.08C418.486 470.08 420.097 470.592 421.313 471.616C422.55 472.619 423.211 473.995 423.297 475.744H419.649C419.585 474.955 419.265 474.325 418.689 473.856C418.113 473.387 417.334 473.152 416.353 473.152C415.393 473.152 414.657 473.333 414.145 473.696C413.633 474.059 413.377 474.539 413.377 475.136C413.377 475.605 413.547 476 413.889 476.32C414.23 476.64 414.646 476.896 415.137 477.088C415.627 477.259 416.353 477.483 417.313 477.76C418.593 478.101 419.638 478.453 420.449 478.816C421.281 479.157 421.995 479.669 422.593 480.352C423.19 481.035 423.499 481.941 423.521 483.072C423.521 484.075 423.243 484.971 422.689 485.76C422.134 486.549 421.345 487.168 420.321 487.616C419.318 488.064 418.134 488.288 416.769 488.288ZM428.935 488.224C428.273 488.224 427.719 488 427.271 487.552C426.823 487.104 426.599 486.549 426.599 485.888C426.599 485.227 426.823 484.672 427.271 484.224C427.719 483.776 428.273 483.552 428.935 483.552C429.575 483.552 430.119 483.776 430.567 484.224C431.015 484.672 431.239 485.227 431.239 485.888C431.239 486.549 431.015 487.104 430.567 487.552C430.119 488 429.575 488.224 428.935 488.224ZM428.935 474.784C428.273 474.784 427.719 474.56 427.271 474.112C426.823 473.664 426.599 473.109 426.599 472.448C426.599 471.787 426.823 471.232 427.271 470.784C427.719 470.336 428.273 470.112 428.935 470.112C429.575 470.112 430.119 470.336 430.567 470.784C431.015 471.232 431.239 471.787 431.239 472.448C431.239 473.109 431.015 473.664 430.567 474.112C430.119 474.56 429.575 474.784 428.935 474.784Z" fill="#212121"/>
<path d="M62.67 114.03V115.77H56.85V135H54.75V115.77H48.9V114.03H62.67ZM68.0859 121.53C68.5459 120.51 69.2459 119.72 70.1859 119.16C71.1459 118.6 72.3159 118.32 73.6959 118.32V120.51H73.1259C71.6059 120.51 70.3859 120.92 69.4659 121.74C68.5459 122.56 68.0859 123.93 68.0859 125.85V135H65.9859V118.62H68.0859V121.53ZM91.0451 118.62V135H88.9451V132.12C88.4651 133.14 87.7251 133.92 86.7251 134.46C85.7251 135 84.6051 135.27 83.3651 135.27C81.4051 135.27 79.8051 134.67 78.5651 133.47C77.3251 132.25 76.7051 130.49 76.7051 128.19V118.62H78.7751V127.95C78.7751 129.73 79.2151 131.09 80.0951 132.03C80.9951 132.97 82.2151 133.44 83.7551 133.44C85.3351 133.44 86.5951 132.94 87.5351 131.94C88.4751 130.94 88.9451 129.47 88.9451 127.53V118.62H91.0451ZM110.659 125.97C110.659 126.69 110.639 127.24 110.599 127.62H97.0095C97.0695 128.86 97.3695 129.92 97.9095 130.8C98.4495 131.68 99.1595 132.35 100.039 132.81C100.919 133.25 101.879 133.47 102.919 133.47C104.279 133.47 105.419 133.14 106.339 132.48C107.279 131.82 107.899 130.93 108.199 129.81H110.419C110.019 131.41 109.159 132.72 107.839 133.74C106.539 134.74 104.899 135.24 102.919 135.24C101.379 135.24 99.9995 134.9 98.7795 134.22C97.5595 133.52 96.5995 132.54 95.8995 131.28C95.2195 130 94.8795 128.51 94.8795 126.81C94.8795 125.11 95.2195 123.62 95.8995 122.34C96.5795 121.06 97.5295 120.08 98.7495 119.4C99.9695 118.72 101.359 118.38 102.919 118.38C104.479 118.38 105.839 118.72 106.999 119.4C108.179 120.08 109.079 121 109.699 122.16C110.339 123.3 110.659 124.57 110.659 125.97ZM108.529 125.91C108.549 124.69 108.299 123.65 107.779 122.79C107.279 121.93 106.589 121.28 105.709 120.84C104.829 120.4 103.869 120.18 102.829 120.18C101.269 120.18 99.9395 120.68 98.8395 121.68C97.7395 122.68 97.1295 124.09 97.0095 125.91H108.529ZM134.884 130.02H125.344L123.514 135H121.294L128.944 114.3H131.314L138.934 135H136.714L134.884 130.02ZM134.254 128.28L130.114 116.94L125.974 128.28H134.254ZM156.494 118.62V135H154.394V132.12C153.914 133.14 153.174 133.92 152.174 134.46C151.174 135 150.054 135.27 148.814 135.27C146.854 135.27 145.254 134.67 144.014 133.47C142.774 132.25 142.154 130.49 142.154 128.19V118.62H144.224V127.95C144.224 129.73 144.664 131.09 145.544 132.03C146.444 132.97 147.664 133.44 149.204 133.44C150.784 133.44 152.044 132.94 152.984 131.94C153.924 130.94 154.394 129.47 154.394 127.53V118.62H156.494ZM164.019 120.39V130.56C164.019 131.56 164.209 132.25 164.589 132.63C164.969 133.01 165.639 133.2 166.599 133.2H168.519V135H166.269C164.789 135 163.689 134.66 162.969 133.98C162.249 133.28 161.889 132.14 161.889 130.56V120.39H159.609V118.62H161.889V114.51H164.019V118.62H168.519V120.39H164.019ZM186.172 118.62V135H184.072V132.12C183.592 133.14 182.852 133.92 181.852 134.46C180.852 135 179.732 135.27 178.492 135.27C176.532 135.27 174.932 134.67 173.692 133.47C172.452 132.25 171.832 130.49 171.832 128.19V118.62H173.902V127.95C173.902 129.73 174.342 131.09 175.222 132.03C176.122 132.97 177.342 133.44 178.882 133.44C180.462 133.44 181.722 132.94 182.662 131.94C183.602 130.94 184.072 129.47 184.072 127.53V118.62H186.172ZM210.466 118.32C212.386 118.32 213.946 118.93 215.146 120.15C216.366 121.35 216.976 123.1 216.976 125.4V135H214.906V125.64C214.906 123.86 214.476 122.5 213.616 121.56C212.756 120.62 211.586 120.15 210.106 120.15C208.566 120.15 207.336 120.66 206.416 121.68C205.496 122.7 205.036 124.18 205.036 126.12V135H202.966V125.64C202.966 123.86 202.536 122.5 201.676 121.56C200.816 120.62 199.636 120.15 198.136 120.15C196.596 120.15 195.366 120.66 194.446 121.68C193.526 122.7 193.066 124.18 193.066 126.12V135H190.966V118.62H193.066V121.44C193.586 120.42 194.326 119.65 195.286 119.13C196.246 118.59 197.316 118.32 198.496 118.32C199.916 118.32 201.156 118.66 202.216 119.34C203.296 120.02 204.076 121.02 204.556 122.34C204.996 121.04 205.746 120.05 206.806 119.37C207.886 118.67 209.106 118.32 210.466 118.32ZM229.32 118.32C231.28 118.32 232.88 118.93 234.12 120.15C235.36 121.35 235.98 123.1 235.98 125.4V135H233.91V125.64C233.91 123.86 233.46 122.5 232.56 121.56C231.68 120.62 230.47 120.15 228.93 120.15C227.35 120.15 226.09 120.65 225.15 121.65C224.21 122.65 223.74 124.12 223.74 126.06V135H221.64V118.62H223.74V121.41C224.26 120.41 225.01 119.65 225.99 119.13C226.97 118.59 228.08 118.32 229.32 118.32Z" fill="black"/>
<path d="M60.21 398.17C61.39 398.39 62.39 398.99 63.21 399.97C64.03 400.95 64.44 402.09 64.44 403.39C64.44 404.45 64.17 405.41 63.63 406.27C63.11 407.11 62.34 407.78 61.32 408.28C60.3 408.76 59.08 409 57.66 409H50.4V388.03H57.45C59.57 388.03 61.18 388.52 62.28 389.5C63.4 390.48 63.96 391.75 63.96 393.31C63.96 394.61 63.61 395.67 62.91 396.49C62.21 397.29 61.31 397.85 60.21 398.17ZM52.5 397.3H57.39C58.81 397.3 59.9 396.97 60.66 396.31C61.44 395.63 61.83 394.7 61.83 393.52C61.83 392.36 61.44 391.45 60.66 390.79C59.9 390.13 58.78 389.8 57.3 389.8H52.5V397.3ZM57.51 407.23C59.03 407.23 60.21 406.87 61.05 406.15C61.91 405.43 62.34 404.44 62.34 403.18C62.34 401.92 61.89 400.92 60.99 400.18C60.11 399.42 58.92 399.04 57.42 399.04H52.5V407.23H57.51ZM82.4904 392.62V409H80.3904V406.12C79.9104 407.14 79.1704 407.92 78.1704 408.46C77.1704 409 76.0504 409.27 74.8104 409.27C72.8504 409.27 71.2504 408.67 70.0104 407.47C68.7704 406.25 68.1504 404.49 68.1504 402.19V392.62H70.2204V401.95C70.2204 403.73 70.6604 405.09 71.5404 406.03C72.4404 406.97 73.6604 407.44 75.2004 407.44C76.7804 407.44 78.0404 406.94 78.9804 405.94C79.9204 404.94 80.3904 403.47 80.3904 401.53V392.62H82.4904ZM92.9248 409.24C91.0448 409.24 89.5048 408.81 88.3048 407.95C87.1248 407.07 86.4648 405.88 86.3248 404.38H88.4848C88.5848 405.3 89.0148 406.05 89.7748 406.63C90.5548 407.19 91.5948 407.47 92.8948 407.47C94.0348 407.47 94.9248 407.2 95.5648 406.66C96.2248 406.12 96.5548 405.45 96.5548 404.65C96.5548 404.09 96.3748 403.63 96.0148 403.27C95.6548 402.91 95.1948 402.63 94.6348 402.43C94.0948 402.21 93.3548 401.98 92.4148 401.74C91.1948 401.42 90.2048 401.1 89.4448 400.78C88.6848 400.46 88.0348 399.99 87.4948 399.37C86.9748 398.73 86.7148 397.88 86.7148 396.82C86.7148 396.02 86.9548 395.28 87.4348 394.6C87.9148 393.92 88.5948 393.38 89.4748 392.98C90.3548 392.58 91.3548 392.38 92.4748 392.38C94.2348 392.38 95.6548 392.83 96.7348 393.73C97.8148 394.61 98.3948 395.83 98.4748 397.39H96.3748C96.3148 396.43 95.9348 395.66 95.2348 395.08C94.5548 394.48 93.6148 394.18 92.4148 394.18C91.3548 394.18 90.4948 394.43 89.8348 394.93C89.1748 395.43 88.8448 396.05 88.8448 396.79C88.8448 397.43 89.0348 397.96 89.4148 398.38C89.8148 398.78 90.3048 399.1 90.8848 399.34C91.4648 399.56 92.2448 399.81 93.2248 400.09C94.4048 400.41 95.3448 400.72 96.0448 401.02C96.7448 401.32 97.3448 401.76 97.8448 402.34C98.3448 402.92 98.6048 403.69 98.6248 404.65C98.6248 405.53 98.3848 406.32 97.9048 407.02C97.4248 407.7 96.7548 408.24 95.8948 408.64C95.0348 409.04 94.0448 409.24 92.9248 409.24ZM103.628 389.53C103.208 389.53 102.848 389.38 102.548 389.08C102.248 388.78 102.098 388.41 102.098 387.97C102.098 387.53 102.248 387.17 102.548 386.89C102.848 386.59 103.208 386.44 103.628 386.44C104.048 386.44 104.408 386.59 104.708 386.89C105.008 387.17 105.158 387.53 105.158 387.97C105.158 388.41 105.008 388.78 104.708 389.08C104.408 389.38 104.048 389.53 103.628 389.53ZM104.678 392.62V409H102.578V392.62H104.678ZM117.113 392.32C119.073 392.32 120.673 392.93 121.913 394.15C123.153 395.35 123.773 397.1 123.773 399.4V409H121.703V399.64C121.703 397.86 121.253 396.5 120.353 395.56C119.473 394.62 118.263 394.15 116.723 394.15C115.143 394.15 113.883 394.65 112.943 395.65C112.003 396.65 111.533 398.12 111.533 400.06V409H109.433V392.62H111.533V395.41C112.053 394.41 112.803 393.65 113.783 393.13C114.763 392.59 115.873 392.32 117.113 392.32ZM143.238 399.97C143.238 400.69 143.218 401.24 143.178 401.62H129.588C129.648 402.86 129.948 403.92 130.488 404.8C131.028 405.68 131.738 406.35 132.618 406.81C133.498 407.25 134.458 407.47 135.498 407.47C136.858 407.47 137.998 407.14 138.918 406.48C139.858 405.82 140.478 404.93 140.778 403.81H142.998C142.598 405.41 141.738 406.72 140.418 407.74C139.118 408.74 137.478 409.24 135.498 409.24C133.958 409.24 132.578 408.9 131.358 408.22C130.138 407.52 129.178 406.54 128.478 405.28C127.798 404 127.458 402.51 127.458 400.81C127.458 399.11 127.798 397.62 128.478 396.34C129.158 395.06 130.108 394.08 131.328 393.4C132.548 392.72 133.938 392.38 135.498 392.38C137.058 392.38 138.418 392.72 139.578 393.4C140.758 394.08 141.658 395 142.278 396.16C142.918 397.3 143.238 398.57 143.238 399.97ZM141.108 399.91C141.128 398.69 140.878 397.65 140.358 396.79C139.858 395.93 139.168 395.28 138.288 394.84C137.408 394.4 136.448 394.18 135.408 394.18C133.848 394.18 132.518 394.68 131.418 395.68C130.318 396.68 129.708 398.09 129.588 399.91H141.108ZM152.72 409.24C150.84 409.24 149.3 408.81 148.1 407.95C146.92 407.07 146.26 405.88 146.12 404.38H148.28C148.38 405.3 148.81 406.05 149.57 406.63C150.35 407.19 151.39 407.47 152.69 407.47C153.83 407.47 154.72 407.2 155.36 406.66C156.02 406.12 156.35 405.45 156.35 404.65C156.35 404.09 156.17 403.63 155.81 403.27C155.45 402.91 154.99 402.63 154.43 402.43C153.89 402.21 153.15 401.98 152.21 401.74C150.99 401.42 150 401.1 149.24 400.78C148.48 400.46 147.83 399.99 147.29 399.37C146.77 398.73 146.51 397.88 146.51 396.82C146.51 396.02 146.75 395.28 147.23 394.6C147.71 393.92 148.39 393.38 149.27 392.98C150.15 392.58 151.15 392.38 152.27 392.38C154.03 392.38 155.45 392.83 156.53 393.73C157.61 394.61 158.19 395.83 158.27 397.39H156.17C156.11 396.43 155.73 395.66 155.03 395.08C154.35 394.48 153.41 394.18 152.21 394.18C151.15 394.18 150.29 394.43 149.63 394.93C148.97 395.43 148.64 396.05 148.64 396.79C148.64 397.43 148.83 397.96 149.21 398.38C149.61 398.78 150.1 399.1 150.68 399.34C151.26 399.56 152.04 399.81 153.02 400.09C154.2 400.41 155.14 400.72 155.84 401.02C156.54 401.32 157.14 401.76 157.64 402.34C158.14 402.92 158.4 403.69 158.42 404.65C158.42 405.53 158.18 406.32 157.7 407.02C157.22 407.7 156.55 408.24 155.69 408.64C154.83 409.04 153.84 409.24 152.72 409.24ZM168.013 409.24C166.133 409.24 164.593 408.81 163.393 407.95C162.213 407.07 161.553 405.88 161.413 404.38H163.573C163.673 405.3 164.103 406.05 164.863 406.63C165.643 407.19 166.683 407.47 167.983 407.47C169.123 407.47 170.013 407.2 170.653 406.66C171.313 406.12 171.643 405.45 171.643 404.65C171.643 404.09 171.463 403.63 171.103 403.27C170.743 402.91 170.283 402.63 169.723 402.43C169.183 402.21 168.443 401.98 167.503 401.74C166.283 401.42 165.293 401.1 164.533 400.78C163.773 400.46 163.123 399.99 162.583 399.37C162.063 398.73 161.803 397.88 161.803 396.82C161.803 396.02 162.043 395.28 162.523 394.6C163.003 393.92 163.683 393.38 164.563 392.98C165.443 392.58 166.443 392.38 167.563 392.38C169.323 392.38 170.743 392.83 171.823 393.73C172.903 394.61 173.483 395.83 173.563 397.39H171.463C171.403 396.43 171.023 395.66 170.323 395.08C169.643 394.48 168.703 394.18 167.503 394.18C166.443 394.18 165.583 394.43 164.923 394.93C164.263 395.43 163.933 396.05 163.933 396.79C163.933 397.43 164.123 397.96 164.503 398.38C164.903 398.78 165.393 399.1 165.973 399.34C166.553 399.56 167.333 399.81 168.313 400.09C169.493 400.41 170.433 400.72 171.133 401.02C171.833 401.32 172.433 401.76 172.933 402.34C173.433 402.92 173.693 403.69 173.713 404.65C173.713 405.53 173.473 406.32 172.993 407.02C172.513 407.7 171.843 408.24 170.983 408.64C170.123 409.04 169.133 409.24 168.013 409.24ZM179.586 405.52L176.466 413.38H175.026L177.246 405.52H179.586ZM202.244 409L197.054 400.24H193.184V409H191.084V388.03H197.384C199.724 388.03 201.494 388.59 202.694 389.71C203.914 390.83 204.524 392.3 204.524 394.12C204.524 395.64 204.084 396.94 203.204 398.02C202.344 399.08 201.064 399.77 199.364 400.09L204.764 409H202.244ZM193.184 398.53H197.414C199.054 398.53 200.284 398.13 201.104 397.33C201.944 396.53 202.364 395.46 202.364 394.12C202.364 392.74 201.964 391.68 201.164 390.94C200.364 390.18 199.104 389.8 197.384 389.8H193.184V398.53ZM223.511 399.97C223.511 400.69 223.491 401.24 223.451 401.62H209.861C209.921 402.86 210.221 403.92 210.761 404.8C211.301 405.68 212.011 406.35 212.891 406.81C213.771 407.25 214.731 407.47 215.771 407.47C217.131 407.47 218.271 407.14 219.191 406.48C220.131 405.82 220.751 404.93 221.051 403.81H223.271C222.871 405.41 222.011 406.72 220.691 407.74C219.391 408.74 217.751 409.24 215.771 409.24C214.231 409.24 212.851 408.9 211.631 408.22C210.411 407.52 209.451 406.54 208.751 405.28C208.071 404 207.731 402.51 207.731 400.81C207.731 399.11 208.071 397.62 208.751 396.34C209.431 395.06 210.381 394.08 211.601 393.4C212.821 392.72 214.211 392.38 215.771 392.38C217.331 392.38 218.691 392.72 219.851 393.4C221.031 394.08 221.931 395 222.551 396.16C223.191 397.3 223.511 398.57 223.511 399.97ZM221.381 399.91C221.401 398.69 221.151 397.65 220.631 396.79C220.131 395.93 219.441 395.28 218.561 394.84C217.681 394.4 216.721 394.18 215.681 394.18C214.121 394.18 212.791 394.68 211.691 395.68C210.591 396.68 209.981 398.09 209.861 399.91H221.381ZM234.223 392.38C235.763 392.38 237.103 392.74 238.243 393.46C239.383 394.18 240.203 395.09 240.703 396.19V392.62H242.803V409.42C242.803 410.92 242.473 412.25 241.813 413.41C241.173 414.57 240.273 415.46 239.113 416.08C237.953 416.72 236.633 417.04 235.153 417.04C233.053 417.04 231.303 416.54 229.903 415.54C228.523 414.54 227.663 413.18 227.323 411.46H229.393C229.753 412.6 230.433 413.51 231.433 414.19C232.453 414.87 233.693 415.21 235.153 415.21C236.213 415.21 237.163 414.98 238.003 414.52C238.843 414.08 239.503 413.42 239.983 412.54C240.463 411.66 240.703 410.62 240.703 409.42V405.37C240.183 406.49 239.353 407.42 238.213 408.16C237.093 408.88 235.763 409.24 234.223 409.24C232.723 409.24 231.373 408.89 230.173 408.19C228.993 407.49 228.063 406.5 227.383 405.22C226.723 403.94 226.393 402.46 226.393 400.78C226.393 399.1 226.723 397.63 227.383 396.37C228.063 395.09 228.993 394.11 230.173 393.43C231.373 392.73 232.723 392.38 234.223 392.38ZM240.703 400.81C240.703 399.49 240.433 398.33 239.893 397.33C239.353 396.33 238.613 395.56 237.673 395.02C236.753 394.48 235.733 394.21 234.613 394.21C233.453 394.21 232.413 394.47 231.493 394.99C230.573 395.51 229.843 396.27 229.303 397.27C228.783 398.25 228.523 399.42 228.523 400.78C228.523 402.12 228.783 403.3 229.303 404.32C229.843 405.32 230.573 406.09 231.493 406.63C232.413 407.15 233.453 407.41 234.613 407.41C235.733 407.41 236.753 407.14 237.673 406.6C238.613 406.06 239.353 405.29 239.893 404.29C240.433 403.29 240.703 402.13 240.703 400.81ZM261.787 392.62V409H259.687V406.12C259.207 407.14 258.467 407.92 257.467 408.46C256.467 409 255.347 409.27 254.107 409.27C252.147 409.27 250.547 408.67 249.307 407.47C248.067 406.25 247.447 404.49 247.447 402.19V392.62H249.517V401.95C249.517 403.73 249.957 405.09 250.837 406.03C251.737 406.97 252.957 407.44 254.497 407.44C256.077 407.44 257.337 406.94 258.277 405.94C259.217 404.94 259.687 403.47 259.687 401.53V392.62H261.787ZM268.682 386.8V409H266.582V386.8H268.682ZM272.477 400.78C272.477 399.1 272.807 397.63 273.467 396.37C274.147 395.09 275.077 394.11 276.257 393.43C277.457 392.73 278.807 392.38 280.307 392.38C281.867 392.38 283.207 392.74 284.327 393.46C285.467 394.18 286.287 395.1 286.787 396.22V392.62H288.887V409H286.787V405.37C286.267 406.49 285.437 407.42 284.297 408.16C283.177 408.88 281.837 409.24 280.277 409.24C278.797 409.24 277.457 408.89 276.257 408.19C275.077 407.49 274.147 406.5 273.467 405.22C272.807 403.94 272.477 402.46 272.477 400.78ZM286.787 400.81C286.787 399.49 286.517 398.33 285.977 397.33C285.437 396.33 284.697 395.56 283.757 395.02C282.837 394.48 281.817 394.21 280.697 394.21C279.537 394.21 278.497 394.47 277.577 394.99C276.657 395.51 275.927 396.27 275.387 397.27C274.867 398.25 274.607 399.42 274.607 400.78C274.607 402.12 274.867 403.3 275.387 404.32C275.927 405.32 276.657 406.09 277.577 406.63C278.497 407.15 279.537 407.41 280.697 407.41C281.817 407.41 282.837 407.14 283.757 406.6C284.697 406.06 285.437 405.29 285.977 404.29C286.517 403.29 286.787 402.13 286.787 400.81ZM295.781 395.53C296.241 394.51 296.941 393.72 297.881 393.16C298.841 392.6 300.011 392.32 301.391 392.32V394.51H300.821C299.301 394.51 298.081 394.92 297.161 395.74C296.241 396.56 295.781 397.93 295.781 399.85V409H293.681V392.62H295.781V395.53ZM324.123 388.03V389.77H314.883V397.6H322.683V399.34H314.883V409H312.783V388.03H324.123ZM328.628 389.53C328.208 389.53 327.848 389.38 327.548 389.08C327.248 388.78 327.098 388.41 327.098 387.97C327.098 387.53 327.248 387.17 327.548 386.89C327.848 386.59 328.208 386.44 328.628 386.44C329.048 386.44 329.408 386.59 329.708 386.89C330.008 387.17 330.158 387.53 330.158 387.97C330.158 388.41 330.008 388.78 329.708 389.08C329.408 389.38 329.048 389.53 328.628 389.53ZM329.678 392.62V409H327.578V392.62H329.678ZM337.163 394.39V404.56C337.163 405.56 337.353 406.25 337.733 406.63C338.113 407.01 338.783 407.2 339.743 407.2H341.663V409H339.413C337.933 409 336.833 408.66 336.113 407.98C335.393 407.28 335.033 406.14 335.033 404.56V394.39H332.753V392.62H335.033V388.51H337.163V392.62H341.663V394.39H337.163Z" fill="black"/>
<path d="M60.21 525.17C61.39 525.39 62.39 525.99 63.21 526.97C64.03 527.95 64.44 529.09 64.44 530.39C64.44 531.45 64.17 532.41 63.63 533.27C63.11 534.11 62.34 534.78 61.32 535.28C60.3 535.76 59.08 536 57.66 536H50.4V515.03H57.45C59.57 515.03 61.18 515.52 62.28 516.5C63.4 517.48 63.96 518.75 63.96 520.31C63.96 521.61 63.61 522.67 62.91 523.49C62.21 524.29 61.31 524.85 60.21 525.17ZM52.5 524.3H57.39C58.81 524.3 59.9 523.97 60.66 523.31C61.44 522.63 61.83 521.7 61.83 520.52C61.83 519.36 61.44 518.45 60.66 517.79C59.9 517.13 58.78 516.8 57.3 516.8H52.5V524.3ZM57.51 534.23C59.03 534.23 60.21 533.87 61.05 533.15C61.91 532.43 62.34 531.44 62.34 530.18C62.34 528.92 61.89 527.92 60.99 527.18C60.11 526.42 58.92 526.04 57.42 526.04H52.5V534.23H57.51ZM67.3404 527.78C67.3404 526.1 67.6704 524.63 68.3304 523.37C69.0104 522.09 69.9404 521.11 71.1204 520.43C72.3204 519.73 73.6704 519.38 75.1704 519.38C76.7304 519.38 78.0704 519.74 79.1904 520.46C80.3304 521.18 81.1504 522.1 81.6504 523.22V519.62H83.7504V536H81.6504V532.37C81.1304 533.49 80.3004 534.42 79.1604 535.16C78.0404 535.88 76.7004 536.24 75.1404 536.24C73.6604 536.24 72.3204 535.89 71.1204 535.19C69.9404 534.49 69.0104 533.5 68.3304 532.22C67.6704 530.94 67.3404 529.46 67.3404 527.78ZM81.6504 527.81C81.6504 526.49 81.3804 525.33 80.8404 524.33C80.3004 523.33 79.5604 522.56 78.6204 522.02C77.7004 521.48 76.6804 521.21 75.5604 521.21C74.4004 521.21 73.3604 521.47 72.4404 521.99C71.5204 522.51 70.7904 523.27 70.2504 524.27C69.7304 525.25 69.4704 526.42 69.4704 527.78C69.4704 529.12 69.7304 530.3 70.2504 531.32C70.7904 532.32 71.5204 533.09 72.4404 533.63C73.3604 534.15 74.4004 534.41 75.5604 534.41C76.6804 534.41 77.7004 534.14 78.6204 533.6C79.5604 533.06 80.3004 532.29 80.8404 531.29C81.3804 530.29 81.6504 529.13 81.6504 527.81ZM90.6145 523.25C91.1545 522.11 91.9845 521.18 93.1045 520.46C94.2445 519.74 95.5845 519.38 97.1245 519.38C98.6245 519.38 99.9645 519.73 101.145 520.43C102.325 521.11 103.245 522.09 103.905 523.37C104.585 524.63 104.925 526.1 104.925 527.78C104.925 529.46 104.585 530.94 103.905 532.22C103.245 533.5 102.315 534.49 101.115 535.19C99.9345 535.89 98.6045 536.24 97.1245 536.24C95.5645 536.24 94.2145 535.89 93.0745 535.19C91.9545 534.47 91.1345 533.54 90.6145 532.4V536H88.5445V513.8H90.6145V523.25ZM102.795 527.78C102.795 526.42 102.525 525.25 101.985 524.27C101.465 523.27 100.745 522.51 99.8245 521.99C98.9045 521.47 97.8645 521.21 96.7045 521.21C95.5845 521.21 94.5545 521.48 93.6145 522.02C92.6945 522.56 91.9645 523.33 91.4245 524.33C90.8845 525.33 90.6145 526.49 90.6145 527.81C90.6145 529.13 90.8845 530.29 91.4245 531.29C91.9645 532.29 92.6945 533.06 93.6145 533.6C94.5545 534.14 95.5845 534.41 96.7045 534.41C97.8645 534.41 98.9045 534.15 99.8245 533.63C100.745 533.09 101.465 532.32 101.985 531.32C102.525 530.3 102.795 529.12 102.795 527.78ZM107.829 527.78C107.829 526.1 108.159 524.63 108.819 523.37C109.499 522.09 110.429 521.11 111.609 520.43C112.809 519.73 114.159 519.38 115.659 519.38C117.219 519.38 118.559 519.74 119.679 520.46C120.819 521.18 121.639 522.1 122.139 523.22V519.62H124.239V536H122.139V532.37C121.619 533.49 120.789 534.42 119.649 535.16C118.529 535.88 117.189 536.24 115.629 536.24C114.149 536.24 112.809 535.89 111.609 535.19C110.429 534.49 109.499 533.5 108.819 532.22C108.159 530.94 107.829 529.46 107.829 527.78ZM122.139 527.81C122.139 526.49 121.869 525.33 121.329 524.33C120.789 523.33 120.049 522.56 119.109 522.02C118.189 521.48 117.169 521.21 116.049 521.21C114.889 521.21 113.849 521.47 112.929 521.99C112.009 522.51 111.279 523.27 110.739 524.27C110.219 525.25 109.959 526.42 109.959 527.78C109.959 529.12 110.219 530.3 110.739 531.32C111.279 532.32 112.009 533.09 112.929 533.63C113.849 534.15 114.889 534.41 116.049 534.41C117.169 534.41 118.189 534.14 119.109 533.6C120.049 533.06 120.789 532.29 121.329 531.29C121.869 530.29 122.139 529.13 122.139 527.81ZM131.763 521.39V531.56C131.763 532.56 131.953 533.25 132.333 533.63C132.713 534.01 133.383 534.2 134.343 534.2H136.263V536H134.013C132.533 536 131.433 535.66 130.713 534.98C129.993 534.28 129.633 533.14 129.633 531.56V521.39H127.353V519.62H129.633V515.51H131.763V519.62H136.263V521.39H131.763ZM146.896 536.24C145.356 536.24 143.966 535.9 142.726 535.22C141.506 534.52 140.536 533.54 139.816 532.28C139.116 531 138.766 529.51 138.766 527.81C138.766 526.11 139.126 524.63 139.846 523.37C140.566 522.09 141.546 521.11 142.786 520.43C144.026 519.73 145.416 519.38 146.956 519.38C148.496 519.38 149.886 519.73 151.126 520.43C152.386 521.11 153.366 522.09 154.066 523.37C154.786 524.63 155.146 526.11 155.146 527.81C155.146 529.49 154.786 530.97 154.066 532.25C153.346 533.53 152.356 534.52 151.096 535.22C149.836 535.9 148.436 536.24 146.896 536.24ZM146.896 534.41C147.976 534.41 148.976 534.17 149.896 533.69C150.816 533.19 151.556 532.45 152.116 531.47C152.696 530.47 152.986 529.25 152.986 527.81C152.986 526.37 152.706 525.16 152.146 524.18C151.586 523.18 150.846 522.44 149.926 521.96C149.006 521.46 148.006 521.21 146.926 521.21C145.846 521.21 144.846 521.46 143.926 521.96C143.006 522.44 142.266 523.18 141.706 524.18C141.166 525.16 140.896 526.37 140.896 527.81C140.896 529.25 141.166 530.47 141.706 531.47C142.266 532.45 142.996 533.19 143.896 533.69C144.816 534.17 145.816 534.41 146.896 534.41ZM166.654 519.32C168.614 519.32 170.214 519.93 171.454 521.15C172.694 522.35 173.314 524.1 173.314 526.4V536H171.244V526.64C171.244 524.86 170.794 523.5 169.894 522.56C169.014 521.62 167.804 521.15 166.264 521.15C164.684 521.15 163.424 521.65 162.484 522.65C161.544 523.65 161.074 525.12 161.074 527.06V536H158.974V519.62H161.074V522.41C161.594 521.41 162.344 520.65 163.324 520.13C164.304 519.59 165.414 519.32 166.654 519.32ZM179.879 532.52L176.759 540.38H175.319L177.539 532.52H179.879ZM203.647 515.03V516.77H197.827V536H195.727V516.77H189.877V515.03H203.647ZM214.763 519.32C216.003 519.32 217.113 519.58 218.093 520.1C219.093 520.62 219.873 521.42 220.433 522.5C221.013 523.56 221.303 524.86 221.303 526.4V536H219.233V526.64C219.233 524.86 218.783 523.5 217.883 522.56C217.003 521.62 215.793 521.15 214.253 521.15C212.673 521.15 211.413 521.65 210.473 522.65C209.533 523.65 209.063 525.12 209.063 527.06V536H206.963V513.8H209.063V522.41C209.583 521.43 210.343 520.67 211.343 520.13C212.363 519.59 213.503 519.32 214.763 519.32ZM240.767 526.97C240.767 527.69 240.747 528.24 240.707 528.62H227.117C227.177 529.86 227.477 530.92 228.017 531.8C228.557 532.68 229.267 533.35 230.147 533.81C231.027 534.25 231.987 534.47 233.027 534.47C234.387 534.47 235.527 534.14 236.447 533.48C237.387 532.82 238.007 531.93 238.307 530.81H240.527C240.127 532.41 239.267 533.72 237.947 534.74C236.647 535.74 235.007 536.24 233.027 536.24C231.487 536.24 230.107 535.9 228.887 535.22C227.667 534.52 226.707 533.54 226.007 532.28C225.327 531 224.987 529.51 224.987 527.81C224.987 526.11 225.327 524.62 226.007 523.34C226.687 522.06 227.637 521.08 228.857 520.4C230.077 519.72 231.467 519.38 233.027 519.38C234.587 519.38 235.947 519.72 237.107 520.4C238.287 521.08 239.187 522 239.807 523.16C240.447 524.3 240.767 525.57 240.767 526.97ZM238.637 526.91C238.657 525.69 238.407 524.65 237.887 523.79C237.387 522.93 236.697 522.28 235.817 521.84C234.937 521.4 233.977 521.18 232.937 521.18C231.377 521.18 230.047 521.68 228.947 522.68C227.847 523.68 227.237 525.09 227.117 526.91H238.637ZM254.941 516.74V524.57H262.891V526.31H254.941V534.26H263.791V536H252.841V515H263.791V516.74H254.941ZM274.379 521.39H270.569V536H268.469V521.39H266.189V519.62H268.469V518.48C268.469 516.7 268.919 515.39 269.819 514.55C270.739 513.71 272.219 513.29 274.259 513.29V515.09C272.899 515.09 271.939 515.35 271.379 515.87C270.839 516.39 270.569 517.26 270.569 518.48V519.62H274.379V521.39ZM284.135 521.39H280.325V536H278.225V521.39H275.945V519.62H278.225V518.48C278.225 516.7 278.675 515.39 279.575 514.55C280.495 513.71 281.975 513.29 284.015 513.29V515.09C282.655 515.09 281.695 515.35 281.135 515.87C280.595 516.39 280.325 517.26 280.325 518.48V519.62H284.135V521.39ZM294.611 536.24C293.071 536.24 291.681 535.9 290.441 535.22C289.221 534.52 288.251 533.54 287.531 532.28C286.831 531 286.481 529.51 286.481 527.81C286.481 526.11 286.841 524.63 287.561 523.37C288.281 522.09 289.261 521.11 290.501 520.43C291.741 519.73 293.131 519.38 294.671 519.38C296.211 519.38 297.601 519.73 298.841 520.43C300.101 521.11 301.081 522.09 301.781 523.37C302.501 524.63 302.861 526.11 302.861 527.81C302.861 529.49 302.501 530.97 301.781 532.25C301.061 533.53 300.071 534.52 298.811 535.22C297.551 535.9 296.151 536.24 294.611 536.24ZM294.611 534.41C295.691 534.41 296.691 534.17 297.611 533.69C298.531 533.19 299.271 532.45 299.831 531.47C300.411 530.47 300.701 529.25 300.701 527.81C300.701 526.37 300.421 525.16 299.861 524.18C299.301 523.18 298.561 522.44 297.641 521.96C296.721 521.46 295.721 521.21 294.641 521.21C293.561 521.21 292.561 521.46 291.641 521.96C290.721 522.44 289.981 523.18 289.421 524.18C288.881 525.16 288.611 526.37 288.611 527.81C288.611 529.25 288.881 530.47 289.421 531.47C289.981 532.45 290.711 533.19 291.611 533.69C292.531 534.17 293.531 534.41 294.611 534.41ZM308.789 522.53C309.249 521.51 309.949 520.72 310.889 520.16C311.849 519.6 313.019 519.32 314.399 519.32V521.51H313.829C312.309 521.51 311.089 521.92 310.169 522.74C309.249 523.56 308.789 524.93 308.789 526.85V536H306.689V519.62H308.789V522.53ZM320.288 521.39V531.56C320.288 532.56 320.478 533.25 320.858 533.63C321.238 534.01 321.908 534.2 322.868 534.2H324.788V536H322.538C321.058 536 319.958 535.66 319.238 534.98C318.518 534.28 318.158 533.14 318.158 531.56V521.39H315.878V519.62H318.158V515.51H320.288V519.62H324.788V521.39H320.288ZM330.352 513.8V536H328.252V513.8H330.352ZM349.927 526.97C349.927 527.69 349.907 528.24 349.867 528.62H336.277C336.337 529.86 336.637 530.92 337.177 531.8C337.717 532.68 338.427 533.35 339.307 533.81C340.187 534.25 341.147 534.47 342.187 534.47C343.547 534.47 344.687 534.14 345.607 533.48C346.547 532.82 347.167 531.93 347.467 530.81H349.687C349.287 532.41 348.427 533.72 347.107 534.74C345.807 535.74 344.167 536.24 342.187 536.24C340.647 536.24 339.267 535.9 338.047 535.22C336.827 534.52 335.867 533.54 335.167 532.28C334.487 531 334.147 529.51 334.147 527.81C334.147 526.11 334.487 524.62 335.167 523.34C335.847 522.06 336.797 521.08 338.017 520.4C339.237 519.72 340.627 519.38 342.187 519.38C343.747 519.38 345.107 519.72 346.267 520.4C347.447 521.08 348.347 522 348.967 523.16C349.607 524.3 349.927 525.57 349.927 526.97ZM347.797 526.91C347.817 525.69 347.567 524.65 347.047 523.79C346.547 522.93 345.857 522.28 344.977 521.84C344.097 521.4 343.137 521.18 342.097 521.18C340.537 521.18 339.207 521.68 338.107 522.68C337.007 523.68 336.397 525.09 336.277 526.91H347.797ZM359.409 536.24C357.529 536.24 355.989 535.81 354.789 534.95C353.609 534.07 352.949 532.88 352.809 531.38H354.969C355.069 532.3 355.499 533.05 356.259 533.63C357.039 534.19 358.079 534.47 359.379 534.47C360.519 534.47 361.409 534.2 362.049 533.66C362.709 533.12 363.039 532.45 363.039 531.65C363.039 531.09 362.859 530.63 362.499 530.27C362.139 529.91 361.679 529.63 361.119 529.43C360.579 529.21 359.839 528.98 358.899 528.74C357.679 528.42 356.689 528.1 355.929 527.78C355.169 527.46 354.519 526.99 353.979 526.37C353.459 525.73 353.199 524.88 353.199 523.82C353.199 523.02 353.439 522.28 353.919 521.6C354.399 520.92 355.079 520.38 355.959 519.98C356.839 519.58 357.839 519.38 358.959 519.38C360.719 519.38 362.139 519.83 363.219 520.73C364.299 521.61 364.879 522.83 364.959 524.39H362.859C362.799 523.43 362.419 522.66 361.719 522.08C361.039 521.48 360.099 521.18 358.899 521.18C357.839 521.18 356.979 521.43 356.319 521.93C355.659 522.43 355.329 523.05 355.329 523.79C355.329 524.43 355.519 524.96 355.899 525.38C356.299 525.78 356.789 526.1 357.369 526.34C357.949 526.56 358.729 526.81 359.709 527.09C360.889 527.41 361.829 527.72 362.529 528.02C363.229 528.32 363.829 528.76 364.329 529.34C364.829 529.92 365.089 530.69 365.109 531.65C365.109 532.53 364.869 533.32 364.389 534.02C363.909 534.7 363.239 535.24 362.379 535.64C361.519 536.04 360.529 536.24 359.409 536.24ZM374.702 536.24C372.822 536.24 371.282 535.81 370.082 534.95C368.902 534.07 368.242 532.88 368.102 531.38H370.262C370.362 532.3 370.792 533.05 371.552 533.63C372.332 534.19 373.372 534.47 374.672 534.47C375.812 534.47 376.702 534.2 377.342 533.66C378.002 533.12 378.332 532.45 378.332 531.65C378.332 531.09 378.152 530.63 377.792 530.27C377.432 529.91 376.972 529.63 376.412 529.43C375.872 529.21 375.132 528.98 374.192 528.74C372.972 528.42 371.982 528.1 371.222 527.78C370.462 527.46 369.812 526.99 369.272 526.37C368.752 525.73 368.492 524.88 368.492 523.82C368.492 523.02 368.732 522.28 369.212 521.6C369.692 520.92 370.372 520.38 371.252 519.98C372.132 519.58 373.132 519.38 374.252 519.38C376.012 519.38 377.432 519.83 378.512 520.73C379.592 521.61 380.172 522.83 380.252 524.39H378.152C378.092 523.43 377.712 522.66 377.012 522.08C376.332 521.48 375.392 521.18 374.192 521.18C373.132 521.18 372.272 521.43 371.612 521.93C370.952 522.43 370.622 523.05 370.622 523.79C370.622 524.43 370.812 524.96 371.192 525.38C371.592 525.78 372.082 526.1 372.662 526.34C373.242 526.56 374.022 526.81 375.002 527.09C376.182 527.41 377.122 527.72 377.822 528.02C378.522 528.32 379.122 528.76 379.622 529.34C380.122 529.92 380.382 530.69 380.402 531.65C380.402 532.53 380.162 533.32 379.682 534.02C379.202 534.7 378.532 535.24 377.672 535.64C376.812 536.04 375.822 536.24 374.702 536.24ZM405.998 521.06C405.998 522.86 405.408 524.31 404.228 525.41C403.048 526.51 401.278 527.06 398.918 527.06H394.688V536H392.588V515.03H398.918C401.258 515.03 403.018 515.58 404.198 516.68C405.398 517.78 405.998 519.24 405.998 521.06ZM398.918 525.26C402.198 525.26 403.838 523.86 403.838 521.06C403.838 519.66 403.448 518.6 402.668 517.88C401.888 517.16 400.638 516.8 398.918 516.8H394.688V525.26H398.918ZM408.561 527.78C408.561 526.1 408.891 524.63 409.551 523.37C410.231 522.09 411.161 521.11 412.341 520.43C413.541 519.73 414.891 519.38 416.391 519.38C417.951 519.38 419.291 519.74 420.411 520.46C421.551 521.18 422.371 522.1 422.871 523.22V519.62H424.971V536H422.871V532.37C422.351 533.49 421.521 534.42 420.381 535.16C419.261 535.88 417.921 536.24 416.361 536.24C414.881 536.24 413.541 535.89 412.341 535.19C411.161 534.49 410.231 533.5 409.551 532.22C408.891 530.94 408.561 529.46 408.561 527.78ZM422.871 527.81C422.871 526.49 422.601 525.33 422.061 524.33C421.521 523.33 420.781 522.56 419.841 522.02C418.921 521.48 417.901 521.21 416.781 521.21C415.621 521.21 414.581 521.47 413.661 521.99C412.741 522.51 412.011 523.27 411.471 524.27C410.951 525.25 410.691 526.42 410.691 527.78C410.691 529.12 410.951 530.3 411.471 531.32C412.011 532.32 412.741 533.09 413.661 533.63C414.581 534.15 415.621 534.41 416.781 534.41C417.901 534.41 418.921 534.14 419.841 533.6C420.781 533.06 421.521 532.29 422.061 531.29C422.601 530.29 422.871 529.13 422.871 527.81ZM437.445 519.32C439.405 519.32 441.005 519.93 442.245 521.15C443.485 522.35 444.105 524.1 444.105 526.4V536H442.035V526.64C442.035 524.86 441.585 523.5 440.685 522.56C439.805 521.62 438.595 521.15 437.055 521.15C435.475 521.15 434.215 521.65 433.275 522.65C432.335 523.65 431.865 525.12 431.865 527.06V536H429.765V519.62H431.865V522.41C432.385 521.41 433.135 520.65 434.115 520.13C435.095 519.59 436.205 519.32 437.445 519.32ZM451.48 521.39V531.56C451.48 532.56 451.67 533.25 452.05 533.63C452.43 534.01 453.1 534.2 454.06 534.2H455.98V536H453.73C452.25 536 451.15 535.66 450.43 534.98C449.71 534.28 449.35 533.14 449.35 531.56V521.39H447.07V519.62H449.35V515.51H451.48V519.62H455.98V521.39H451.48ZM461.363 532.52L458.243 540.38H456.803L459.023 532.52H461.363ZM61.59 581L52.5 571.31V581H50.4V560.03H52.5V569.84L61.59 560.03H64.26L54.45 570.5L64.35 581H61.59ZM75.1308 564.32C77.0908 564.32 78.6908 564.93 79.9308 566.15C81.1708 567.35 81.7908 569.1 81.7908 571.4V581H79.7208V571.64C79.7208 569.86 79.2708 568.5 78.3708 567.56C77.4908 566.62 76.2808 566.15 74.7408 566.15C73.1608 566.15 71.9008 566.65 70.9608 567.65C70.0208 568.65 69.5508 570.12 69.5508 572.06V581H67.4508V564.62H69.5508V567.41C70.0708 566.41 70.8208 565.65 71.8008 565.13C72.7808 564.59 73.8908 564.32 75.1308 564.32ZM87.4852 561.53C87.0652 561.53 86.7052 561.38 86.4052 561.08C86.1052 560.78 85.9552 560.41 85.9552 559.97C85.9552 559.53 86.1052 559.17 86.4052 558.89C86.7052 558.59 87.0652 558.44 87.4852 558.44C87.9052 558.44 88.2652 558.59 88.5652 558.89C88.8652 559.17 89.0152 559.53 89.0152 559.97C89.0152 560.41 88.8652 560.78 88.5652 561.08C88.2652 561.38 87.9052 561.53 87.4852 561.53ZM88.5352 564.62V581H86.4352V564.62H88.5352ZM96.0206 566.39V576.56C96.0206 577.56 96.2106 578.25 96.5906 578.63C96.9706 579.01 97.6406 579.2 98.6006 579.2H100.521V581H98.2706C96.7906 581 95.6906 580.66 94.9706 579.98C94.2506 579.28 93.8906 578.14 93.8906 576.56V566.39H91.6106V564.62H93.8906V560.51H96.0206V564.62H100.521V566.39H96.0206ZM109.624 581.24C107.744 581.24 106.204 580.81 105.004 579.95C103.824 579.07 103.164 577.88 103.024 576.38H105.184C105.284 577.3 105.714 578.05 106.474 578.63C107.254 579.19 108.294 579.47 109.594 579.47C110.734 579.47 111.624 579.2 112.264 578.66C112.924 578.12 113.254 577.45 113.254 576.65C113.254 576.09 113.074 575.63 112.714 575.27C112.354 574.91 111.894 574.63 111.334 574.43C110.794 574.21 110.054 573.98 109.114 573.74C107.894 573.42 106.904 573.1 106.144 572.78C105.384 572.46 104.734 571.99 104.194 571.37C103.674 570.73 103.414 569.88 103.414 568.82C103.414 568.02 103.654 567.28 104.134 566.6C104.614 565.92 105.294 565.38 106.174 564.98C107.054 564.58 108.054 564.38 109.174 564.38C110.934 564.38 112.354 564.83 113.434 565.73C114.514 566.61 115.094 567.83 115.174 569.39H113.074C113.014 568.43 112.634 567.66 111.934 567.08C111.254 566.48 110.314 566.18 109.114 566.18C108.054 566.18 107.194 566.43 106.534 566.93C105.874 567.43 105.544 568.05 105.544 568.79C105.544 569.43 105.734 569.96 106.114 570.38C106.514 570.78 107.004 571.1 107.584 571.34C108.164 571.56 108.944 571.81 109.924 572.09C111.104 572.41 112.044 572.72 112.744 573.02C113.444 573.32 114.044 573.76 114.544 574.34C115.044 574.92 115.304 575.69 115.324 576.65C115.324 577.53 115.084 578.32 114.604 579.02C114.124 579.7 113.454 580.24 112.594 580.64C111.734 581.04 110.744 581.24 109.624 581.24ZM126.549 572.78C126.549 571.1 126.879 569.63 127.539 568.37C128.219 567.09 129.149 566.11 130.329 565.43C131.529 564.73 132.879 564.38 134.379 564.38C135.939 564.38 137.279 564.74 138.399 565.46C139.539 566.18 140.359 567.1 140.859 568.22V564.62H142.959V581H140.859V577.37C140.339 578.49 139.509 579.42 138.369 580.16C137.249 580.88 135.909 581.24 134.349 581.24C132.869 581.24 131.529 580.89 130.329 580.19C129.149 579.49 128.219 578.5 127.539 577.22C126.879 575.94 126.549 574.46 126.549 572.78ZM140.859 572.81C140.859 571.49 140.589 570.33 140.049 569.33C139.509 568.33 138.769 567.56 137.829 567.02C136.909 566.48 135.889 566.21 134.769 566.21C133.609 566.21 132.569 566.47 131.649 566.99C130.729 567.51 129.999 568.27 129.459 569.27C128.939 570.25 128.679 571.42 128.679 572.78C128.679 574.12 128.939 575.3 129.459 576.32C129.999 577.32 130.729 578.09 131.649 578.63C132.569 579.15 133.609 579.41 134.769 579.41C135.889 579.41 136.909 579.14 137.829 578.6C138.769 578.06 139.509 577.29 140.049 576.29C140.589 575.29 140.859 574.13 140.859 572.81ZM155.434 564.32C157.394 564.32 158.994 564.93 160.234 566.15C161.474 567.35 162.094 569.1 162.094 571.4V581H160.024V571.64C160.024 569.86 159.574 568.5 158.674 567.56C157.794 566.62 156.584 566.15 155.044 566.15C153.464 566.15 152.204 566.65 151.264 567.65C150.324 568.65 149.854 570.12 149.854 572.06V581H147.754V564.62H149.854V567.41C150.374 566.41 151.124 565.65 152.104 565.13C153.084 564.59 154.194 564.32 155.434 564.32ZM165.778 572.78C165.778 571.1 166.118 569.63 166.798 568.37C167.478 567.09 168.408 566.11 169.588 565.43C170.788 564.73 172.138 564.38 173.638 564.38C175.078 564.38 176.378 564.73 177.538 565.43C178.698 566.13 179.548 567.04 180.088 568.16V558.8H182.188V581H180.088V577.34C179.588 578.48 178.768 579.42 177.628 580.16C176.488 580.88 175.148 581.24 173.608 581.24C172.108 581.24 170.758 580.89 169.558 580.19C168.378 579.49 167.448 578.5 166.768 577.22C166.108 575.94 165.778 574.46 165.778 572.78ZM180.088 572.81C180.088 571.49 179.818 570.33 179.278 569.33C178.738 568.33 177.998 567.56 177.058 567.02C176.138 566.48 175.118 566.21 173.998 566.21C172.838 566.21 171.798 566.47 170.878 566.99C169.958 567.51 169.228 568.27 168.688 569.27C168.168 570.25 167.908 571.42 167.908 572.78C167.908 574.12 168.168 575.3 168.688 576.32C169.228 577.32 169.958 578.09 170.878 578.63C171.798 579.15 172.838 579.41 173.998 579.41C175.118 579.41 176.138 579.14 177.058 578.6C177.998 578.06 178.738 577.29 179.278 576.29C179.818 575.29 180.088 574.13 180.088 572.81ZM194.254 570.5C194.254 568.44 194.704 566.6 195.604 564.98C196.504 563.34 197.734 562.07 199.294 561.17C200.854 560.25 202.594 559.79 204.514 559.79C206.854 559.79 208.854 560.35 210.514 561.47C212.194 562.57 213.414 564.13 214.174 566.15H211.714C211.114 564.73 210.194 563.62 208.954 562.82C207.734 562.02 206.254 561.62 204.514 561.62C202.974 561.62 201.584 561.98 200.344 562.7C199.124 563.42 198.164 564.46 197.464 565.82C196.764 567.16 196.414 568.72 196.414 570.5C196.414 572.28 196.764 573.84 197.464 575.18C198.164 576.52 199.124 577.55 200.344 578.27C201.584 578.99 202.974 579.35 204.514 579.35C206.254 579.35 207.734 578.96 208.954 578.18C210.194 577.38 211.114 576.28 211.714 574.88H214.174C213.414 576.88 212.194 578.43 210.514 579.53C208.834 580.63 206.834 581.18 204.514 581.18C202.594 581.18 200.854 580.73 199.294 579.83C197.734 578.91 196.504 577.64 195.604 576.02C194.704 574.4 194.254 572.56 194.254 570.5ZM217.399 572.78C217.399 571.1 217.729 569.63 218.389 568.37C219.069 567.09 219.999 566.11 221.179 565.43C222.379 564.73 223.729 564.38 225.229 564.38C226.789 564.38 228.129 564.74 229.249 565.46C230.389 566.18 231.209 567.1 231.709 568.22V564.62H233.809V581H231.709V577.37C231.189 578.49 230.359 579.42 229.219 580.16C228.099 580.88 226.759 581.24 225.199 581.24C223.719 581.24 222.379 580.89 221.179 580.19C219.999 579.49 219.069 578.5 218.389 577.22C217.729 575.94 217.399 574.46 217.399 572.78ZM231.709 572.81C231.709 571.49 231.439 570.33 230.899 569.33C230.359 568.33 229.619 567.56 228.679 567.02C227.759 566.48 226.739 566.21 225.619 566.21C224.459 566.21 223.419 566.47 222.499 566.99C221.579 567.51 220.849 568.27 220.309 569.27C219.789 570.25 219.529 571.42 219.529 572.78C219.529 574.12 219.789 575.3 220.309 576.32C220.849 577.32 221.579 578.09 222.499 578.63C223.419 579.15 224.459 579.41 225.619 579.41C226.739 579.41 227.759 579.14 228.679 578.6C229.619 578.06 230.359 577.29 230.899 576.29C231.439 575.29 231.709 574.13 231.709 572.81ZM240.703 567.53C241.163 566.51 241.863 565.72 242.803 565.16C243.763 564.6 244.933 564.32 246.313 564.32V566.51H245.743C244.223 566.51 243.003 566.92 242.083 567.74C241.163 568.56 240.703 569.93 240.703 571.85V581H238.603V564.62H240.703V567.53ZM248.512 572.78C248.512 571.1 248.852 569.63 249.532 568.37C250.212 567.09 251.142 566.11 252.322 565.43C253.522 564.73 254.872 564.38 256.372 564.38C257.812 564.38 259.112 564.73 260.272 565.43C261.432 566.13 262.282 567.04 262.822 568.16V558.8H264.922V581H262.822V577.34C262.322 578.48 261.502 579.42 260.362 580.16C259.222 580.88 257.882 581.24 256.342 581.24C254.842 581.24 253.492 580.89 252.292 580.19C251.112 579.49 250.182 578.5 249.502 577.22C248.842 575.94 248.512 574.46 248.512 572.78ZM262.822 572.81C262.822 571.49 262.552 570.33 262.012 569.33C261.472 568.33 260.732 567.56 259.792 567.02C258.872 566.48 257.852 566.21 256.732 566.21C255.572 566.21 254.532 566.47 253.612 566.99C252.692 567.51 251.962 568.27 251.422 569.27C250.902 570.25 250.642 571.42 250.642 572.78C250.642 574.12 250.902 575.3 251.422 576.32C251.962 577.32 252.692 578.09 253.612 578.63C254.532 579.15 255.572 579.41 256.732 579.41C257.852 579.41 258.872 579.14 259.792 578.6C260.732 578.06 261.472 577.29 262.012 576.29C262.552 575.29 262.822 574.13 262.822 572.81ZM270.766 561.53C270.346 561.53 269.986 561.38 269.686 561.08C269.386 560.78 269.236 560.41 269.236 559.97C269.236 559.53 269.386 559.17 269.686 558.89C269.986 558.59 270.346 558.44 270.766 558.44C271.186 558.44 271.546 558.59 271.846 558.89C272.146 559.17 272.296 559.53 272.296 559.97C272.296 560.41 272.146 560.78 271.846 561.08C271.546 561.38 271.186 561.53 270.766 561.53ZM271.816 564.62V581H269.716V564.62H271.816ZM283.442 564.38C284.982 564.38 286.322 564.74 287.462 565.46C288.602 566.18 289.422 567.09 289.922 568.19V564.62H292.022V581.42C292.022 582.92 291.692 584.25 291.032 585.41C290.392 586.57 289.492 587.46 288.332 588.08C287.172 588.72 285.852 589.04 284.372 589.04C282.272 589.04 280.522 588.54 279.122 587.54C277.742 586.54 276.882 585.18 276.542 583.46H278.612C278.972 584.6 279.652 585.51 280.652 586.19C281.672 586.87 282.912 587.21 284.372 587.21C285.432 587.21 286.382 586.98 287.222 586.52C288.062 586.08 288.722 585.42 289.202 584.54C289.682 583.66 289.922 582.62 289.922 581.42V577.37C289.402 578.49 288.572 579.42 287.432 580.16C286.312 580.88 284.982 581.24 283.442 581.24C281.942 581.24 280.592 580.89 279.392 580.19C278.212 579.49 277.282 578.5 276.602 577.22C275.942 575.94 275.612 574.46 275.612 572.78C275.612 571.1 275.942 569.63 276.602 568.37C277.282 567.09 278.212 566.11 279.392 565.43C280.592 564.73 281.942 564.38 283.442 564.38ZM289.922 572.81C289.922 571.49 289.652 570.33 289.112 569.33C288.572 568.33 287.832 567.56 286.892 567.02C285.972 566.48 284.952 566.21 283.832 566.21C282.672 566.21 281.632 566.47 280.712 566.99C279.792 567.51 279.062 568.27 278.522 569.27C278.002 570.25 277.742 571.42 277.742 572.78C277.742 574.12 278.002 575.3 278.522 576.32C279.062 577.32 279.792 578.09 280.712 578.63C281.632 579.15 282.672 579.41 283.832 579.41C284.952 579.41 285.972 579.14 286.892 578.6C287.832 578.06 288.572 577.29 289.112 576.29C289.652 575.29 289.922 574.13 289.922 572.81ZM295.856 572.78C295.856 571.1 296.186 569.63 296.846 568.37C297.526 567.09 298.456 566.11 299.636 565.43C300.836 564.73 302.186 564.38 303.686 564.38C305.246 564.38 306.586 564.74 307.706 565.46C308.846 566.18 309.666 567.1 310.166 568.22V564.62H312.266V581H310.166V577.37C309.646 578.49 308.816 579.42 307.676 580.16C306.556 580.88 305.216 581.24 303.656 581.24C302.176 581.24 300.836 580.89 299.636 580.19C298.456 579.49 297.526 578.5 296.846 577.22C296.186 575.94 295.856 574.46 295.856 572.78ZM310.166 572.81C310.166 571.49 309.896 570.33 309.356 569.33C308.816 568.33 308.076 567.56 307.136 567.02C306.216 566.48 305.196 566.21 304.076 566.21C302.916 566.21 301.876 566.47 300.956 566.99C300.036 567.51 299.306 568.27 298.766 569.27C298.246 570.25 297.986 571.42 297.986 572.78C297.986 574.12 298.246 575.3 298.766 576.32C299.306 577.32 300.036 578.09 300.956 578.63C301.876 579.15 302.916 579.41 304.076 579.41C305.196 579.41 306.216 579.14 307.136 578.6C308.076 578.06 308.816 577.29 309.356 576.29C309.896 575.29 310.166 574.13 310.166 572.81ZM324.74 564.32C326.7 564.32 328.3 564.93 329.54 566.15C330.78 567.35 331.4 569.1 331.4 571.4V581H329.33V571.64C329.33 569.86 328.88 568.5 327.98 567.56C327.1 566.62 325.89 566.15 324.35 566.15C322.77 566.15 321.51 566.65 320.57 567.65C319.63 568.65 319.16 570.12 319.16 572.06V581H317.06V564.62H319.16V567.41C319.68 566.41 320.43 565.65 321.41 565.13C322.39 564.59 323.5 564.32 324.74 564.32ZM341.685 581.24C339.805 581.24 338.265 580.81 337.065 579.95C335.885 579.07 335.225 577.88 335.085 576.38H337.245C337.345 577.3 337.775 578.05 338.535 578.63C339.315 579.19 340.355 579.47 341.655 579.47C342.795 579.47 343.685 579.2 344.325 578.66C344.985 578.12 345.315 577.45 345.315 576.65C345.315 576.09 345.135 575.63 344.775 575.27C344.415 574.91 343.955 574.63 343.395 574.43C342.855 574.21 342.115 573.98 341.175 573.74C339.955 573.42 338.965 573.1 338.205 572.78C337.445 572.46 336.795 571.99 336.255 571.37C335.735 570.73 335.475 569.88 335.475 568.82C335.475 568.02 335.715 567.28 336.195 566.6C336.675 565.92 337.355 565.38 338.235 564.98C339.115 564.58 340.115 564.38 341.235 564.38C342.995 564.38 344.415 564.83 345.495 565.73C346.575 566.61 347.155 567.83 347.235 569.39H345.135C345.075 568.43 344.695 567.66 343.995 567.08C343.315 566.48 342.375 566.18 341.175 566.18C340.115 566.18 339.255 566.43 338.595 566.93C337.935 567.43 337.605 568.05 337.605 568.79C337.605 569.43 337.795 569.96 338.175 570.38C338.575 570.78 339.065 571.1 339.645 571.34C340.225 571.56 341.005 571.81 341.985 572.09C343.165 572.41 344.105 572.72 344.805 573.02C345.505 573.32 346.105 573.76 346.605 574.34C347.105 574.92 347.365 575.69 347.385 576.65C347.385 577.53 347.145 578.32 346.665 579.02C346.185 579.7 345.515 580.24 344.655 580.64C343.795 581.04 342.805 581.24 341.685 581.24Z" fill="black"/>
<rect x="48" y="168" width="49" height="49" fill="#668444"/>
<rect x="48" y="229" width="49" height="49" fill="#1E593D"/>
<rect x="109" y="168" width="49" height="49" fill="#7E90B8"/>
<rect x="109" y="229" width="49" height="49" fill="#38598E"/>
<rect x="170" y="168" width="48" height="49" fill="#83396A"/>
<rect x="170" y="229" width="48" height="49" fill="#6A5075"/>
<rect x="230" y="168" width="48" height="49" fill="#E76563"/>
<rect x="230" y="229" width="48" height="49" fill="#DA4B45"/>
<rect x="290" y="168" width="48" height="49" fill="#63503F"/>
<rect x="290" y="229" width="48" height="49" fill="#61492D"/>
<rect x="350" y="168" width="49" height="49" fill="#BEB39F"/>
<rect x="350" y="229" width="49" height="49" fill="#9D9885"/>
<rect x="411" y="168" width="49" height="49" fill="#F5EBD2"/>
<rect x="411" y="229" width="49" height="49" fill="#3B3A38"/>
</svg>
