<svg width="161" height="203" viewBox="0 0 161 203" fill="none" xmlns="http://www.w3.org/2000/svg">
<path d="M8.77367 190.335C7.39367 190.335 6.17367 190.095 5.11367 189.615C4.07367 189.135 3.25367 188.465 2.65367 187.605C2.05367 186.745 1.73367 185.785 1.69367 184.725H3.91367C4.01367 185.745 4.46367 186.645 5.26367 187.425C6.06367 188.185 7.23367 188.565 8.77367 188.565C10.1937 188.565 11.3137 188.205 12.1337 187.485C12.9737 186.745 13.3937 185.815 13.3937 184.695C13.3937 183.795 13.1637 183.075 12.7037 182.535C12.2437 181.975 11.6737 181.565 10.9937 181.305C10.3137 181.025 9.37367 180.725 8.17367 180.405C6.77367 180.025 5.66367 179.655 4.84367 179.295C4.02367 178.935 3.32367 178.375 2.74367 177.615C2.16367 176.855 1.87367 175.825 1.87367 174.525C1.87367 173.445 2.15367 172.485 2.71367 171.645C3.27367 170.785 4.06367 170.115 5.08367 169.635C6.10367 169.155 7.27367 168.915 8.59367 168.915C10.5337 168.915 12.0937 169.395 13.2737 170.355C14.4737 171.295 15.1637 172.515 15.3437 174.015H13.0637C12.9237 173.155 12.4537 172.395 11.6537 171.735C10.8537 171.055 9.77367 170.715 8.41367 170.715C7.15367 170.715 6.10367 171.055 5.26367 171.735C4.42367 172.395 4.00367 173.305 4.00367 174.465C4.00367 175.345 4.23367 176.055 4.69367 176.595C5.15367 177.135 5.72367 177.545 6.40367 177.825C7.10367 178.105 8.04367 178.405 9.22367 178.725C10.5837 179.105 11.6837 179.485 12.5237 179.865C13.3637 180.225 14.0737 180.785 14.6537 181.545C15.2337 182.305 15.5237 183.325 15.5237 184.605C15.5237 185.585 15.2637 186.515 14.7437 187.395C14.2237 188.275 13.4537 188.985 12.4337 189.525C11.4137 190.065 10.1937 190.335 8.77367 190.335ZM22.3116 175.515V185.685C22.3116 186.685 22.5016 187.375 22.8816 187.755C23.2616 188.135 23.9316 188.325 24.8916 188.325H26.8116V190.125H24.5616C23.0816 190.125 21.9816 189.785 21.2616 189.105C20.5416 188.405 20.1816 187.265 20.1816 185.685V175.515H17.9016V173.745H20.1816V169.635H22.3116V173.745H26.8116V175.515H22.3116ZM32.375 176.655C32.835 175.635 33.535 174.845 34.475 174.285C35.435 173.725 36.605 173.445 37.985 173.445V175.635H37.415C35.895 175.635 34.675 176.045 33.755 176.865C32.835 177.685 32.375 179.055 32.375 180.975V190.125H30.275V173.745H32.375V176.655ZM55.9641 181.095C55.9641 181.815 55.9441 182.365 55.9041 182.745H42.3141C42.3741 183.985 42.6741 185.045 43.2141 185.925C43.7541 186.805 44.4641 187.475 45.3441 187.935C46.2241 188.375 47.1841 188.595 48.2241 188.595C49.5841 188.595 50.7241 188.265 51.6441 187.605C52.5841 186.945 53.2041 186.055 53.5041 184.935H55.7241C55.3241 186.535 54.4641 187.845 53.1441 188.865C51.8441 189.865 50.2041 190.365 48.2241 190.365C46.6841 190.365 45.3041 190.025 44.0841 189.345C42.8641 188.645 41.9041 187.665 41.2041 186.405C40.5241 185.125 40.1841 183.635 40.1841 181.935C40.1841 180.235 40.5241 178.745 41.2041 177.465C41.8841 176.185 42.8341 175.205 44.0541 174.525C45.2741 173.845 46.6641 173.505 48.2241 173.505C49.7841 173.505 51.1441 173.845 52.3041 174.525C53.4841 175.205 54.3841 176.125 55.0041 177.285C55.6441 178.425 55.9641 179.695 55.9641 181.095ZM53.8341 181.035C53.8541 179.815 53.6041 178.775 53.0841 177.915C52.5841 177.055 51.8941 176.405 51.0141 175.965C50.1341 175.525 49.1741 175.305 48.1341 175.305C46.5741 175.305 45.2441 175.805 44.1441 176.805C43.0441 177.805 42.4341 179.215 42.3141 181.035H53.8341ZM74.6263 181.095C74.6263 181.815 74.6063 182.365 74.5663 182.745H60.9763C61.0363 183.985 61.3363 185.045 61.8763 185.925C62.4163 186.805 63.1263 187.475 64.0063 187.935C64.8863 188.375 65.8463 188.595 66.8863 188.595C68.2463 188.595 69.3863 188.265 70.3063 187.605C71.2463 186.945 71.8663 186.055 72.1663 184.935H74.3863C73.9863 186.535 73.1263 187.845 71.8063 188.865C70.5063 189.865 68.8663 190.365 66.8863 190.365C65.3463 190.365 63.9663 190.025 62.7463 189.345C61.5263 188.645 60.5663 187.665 59.8663 186.405C59.1863 185.125 58.8463 183.635 58.8463 181.935C58.8463 180.235 59.1863 178.745 59.8663 177.465C60.5463 176.185 61.4963 175.205 62.7163 174.525C63.9363 173.845 65.3263 173.505 66.8863 173.505C68.4463 173.505 69.8063 173.845 70.9663 174.525C72.1463 175.205 73.0463 176.125 73.6663 177.285C74.3063 178.425 74.6263 179.695 74.6263 181.095ZM72.4963 181.035C72.5163 179.815 72.2663 178.775 71.7463 177.915C71.2463 177.055 70.5563 176.405 69.6763 175.965C68.7963 175.525 67.8363 175.305 66.7963 175.305C65.2363 175.305 63.9063 175.805 62.8063 176.805C61.7063 177.805 61.0963 179.215 60.9763 181.035H72.4963ZM81.1984 175.515V185.685C81.1984 186.685 81.3884 187.375 81.7684 187.755C82.1484 188.135 82.8184 188.325 83.7784 188.325H85.6984V190.125H83.4484C81.9684 190.125 80.8684 189.785 80.1484 189.105C79.4284 188.405 79.0684 187.265 79.0684 185.685V175.515H76.7884V173.745H79.0684V169.635H81.1984V173.745H85.6984V175.515H81.1984ZM110.762 173.745L105.632 190.125H103.532L99.0017 176.385L94.4717 190.125H92.3417L87.2117 173.745H89.3417L93.4217 187.995L98.0117 173.745H100.112L104.642 188.025L108.692 173.745H110.762ZM128.445 181.095C128.445 181.815 128.425 182.365 128.385 182.745H114.795C114.855 183.985 115.155 185.045 115.695 185.925C116.235 186.805 116.945 187.475 117.825 187.935C118.705 188.375 119.665 188.595 120.705 188.595C122.065 188.595 123.205 188.265 124.125 187.605C125.065 186.945 125.685 186.055 125.985 184.935H128.205C127.805 186.535 126.945 187.845 125.625 188.865C124.325 189.865 122.685 190.365 120.705 190.365C119.165 190.365 117.785 190.025 116.565 189.345C115.345 188.645 114.385 187.665 113.685 186.405C113.005 185.125 112.665 183.635 112.665 181.935C112.665 180.235 113.005 178.745 113.685 177.465C114.365 176.185 115.315 175.205 116.535 174.525C117.755 173.845 119.145 173.505 120.705 173.505C122.265 173.505 123.625 173.845 124.785 174.525C125.965 175.205 126.865 176.125 127.485 177.285C128.125 178.425 128.445 179.695 128.445 181.095ZM126.315 181.035C126.335 179.815 126.085 178.775 125.565 177.915C125.065 177.055 124.375 176.405 123.495 175.965C122.615 175.525 121.655 175.305 120.615 175.305C119.055 175.305 117.725 175.805 116.625 176.805C115.525 177.805 114.915 179.215 114.795 181.035H126.315ZM131.327 181.905C131.327 180.225 131.657 178.755 132.317 177.495C132.997 176.215 133.927 175.235 135.107 174.555C136.307 173.855 137.657 173.505 139.157 173.505C140.717 173.505 142.057 173.865 143.177 174.585C144.317 175.305 145.137 176.225 145.637 177.345V173.745H147.737V190.125H145.637V186.495C145.117 187.615 144.287 188.545 143.147 189.285C142.027 190.005 140.687 190.365 139.127 190.365C137.647 190.365 136.307 190.015 135.107 189.315C133.927 188.615 132.997 187.625 132.317 186.345C131.657 185.065 131.327 183.585 131.327 181.905ZM145.637 181.935C145.637 180.615 145.367 179.455 144.827 178.455C144.287 177.455 143.547 176.685 142.607 176.145C141.687 175.605 140.667 175.335 139.547 175.335C138.387 175.335 137.347 175.595 136.427 176.115C135.507 176.635 134.777 177.395 134.237 178.395C133.717 179.375 133.457 180.545 133.457 181.905C133.457 183.245 133.717 184.425 134.237 185.445C134.777 186.445 135.507 187.215 136.427 187.755C137.347 188.275 138.387 188.535 139.547 188.535C140.667 188.535 141.687 188.265 142.607 187.725C143.547 187.185 144.287 186.415 144.827 185.415C145.367 184.415 145.637 183.255 145.637 181.935ZM154.631 176.655C155.091 175.635 155.791 174.845 156.731 174.285C157.691 173.725 158.861 173.445 160.241 173.445V175.635H159.671C158.151 175.635 156.931 176.045 156.011 176.865C155.091 177.685 154.631 179.055 154.631 180.975V190.125H152.531V173.745H154.631V176.655Z" fill="black"/>
<path d="M101.267 17.7432V12.125C101.253 8.94682 99.9817 5.90291 97.73 3.65557C95.4783 1.40824 92.4285 0.139349 89.2442 0.125H71.7558C68.5715 0.139349 65.5217 1.40824 63.27 3.65557C61.0183 5.90291 59.7469 8.94682 59.7326 12.125V17.7432C52.5198 18.5601 45.8602 21.9967 41.0226 27.3984C36.185 32.8 33.5074 39.7891 33.5 47.0341V112.489C33.5 114.514 34.3061 116.456 35.741 117.888C37.1758 119.32 39.1219 120.125 41.1512 120.125H119.849C121.878 120.125 123.824 119.32 125.259 117.888C126.694 116.456 127.5 114.514 127.5 112.489V47.0341C127.493 39.7891 124.815 32.8 119.977 27.3984C115.14 21.9967 108.48 18.5601 101.267 17.7432ZM71.7558 6.67045H89.2442C90.6936 6.67045 92.0837 7.24513 93.1086 8.26805C94.1335 9.29098 94.7093 10.6784 94.7093 12.125V17.5795H66.2907V12.125C66.2907 10.6784 66.8665 9.29098 67.8914 8.26805C68.9163 7.24513 70.3064 6.67045 71.7558 6.67045ZM103.453 83.0341H57.5465V77.5795C57.5465 76.1329 58.1223 74.7455 59.1472 73.7226C60.1721 72.6997 61.5622 72.125 63.0116 72.125H97.9884C99.4378 72.125 100.828 72.6997 101.853 73.7226C102.878 74.7455 103.453 76.1329 103.453 77.5795V83.0341ZM57.5465 89.5796H85.9651V95.0341C85.9651 95.9021 86.3106 96.7345 86.9255 97.3483C87.5405 97.962 88.3745 98.3068 89.2442 98.3068C90.1139 98.3068 90.9479 97.962 91.5628 97.3483C92.1778 96.7345 92.5233 95.9021 92.5233 95.0341V89.5796H103.453V113.58H57.5465V89.5796ZM120.942 112.489C120.942 112.778 120.827 113.055 120.622 113.26C120.417 113.465 120.139 113.58 119.849 113.58H110.012V77.5795C109.997 74.4014 108.726 71.3575 106.474 69.1101C104.223 66.8628 101.173 65.5939 97.9884 65.5795H63.0116C59.8273 65.5939 56.7775 66.8628 54.5258 69.1101C52.2741 71.3575 51.0027 74.4014 50.9884 77.5795V113.58H41.1512C40.8613 113.58 40.5833 113.465 40.3783 113.26C40.1733 113.055 40.0581 112.778 40.0581 112.489V47.0341C40.0581 40.9582 42.4764 35.1312 46.7811 30.8349C51.0857 26.5386 56.924 24.125 63.0116 24.125H97.9884C104.076 24.125 109.914 26.5386 114.219 30.8349C118.524 35.1312 120.942 40.9582 120.942 47.0341V112.489ZM92.5233 42.6705C92.5233 43.5384 92.1778 44.3709 91.5628 44.9846C90.9479 45.5984 90.1139 45.9432 89.2442 45.9432H71.7558C70.8862 45.9432 70.0521 45.5984 69.4372 44.9846C68.8222 44.3709 68.4767 43.5384 68.4767 42.6705C68.4767 41.8025 68.8222 40.97 69.4372 40.3563C70.0521 39.7425 70.8862 39.3977 71.7558 39.3977H89.2442C90.1139 39.3977 90.9479 39.7425 91.5628 40.3563C92.1778 40.97 92.5233 41.8025 92.5233 42.6705Z" fill="#121212"/>
</svg>
