<svg width="281" height="52" viewBox="0 0 281 52" fill="none" xmlns="http://www.w3.org/2000/svg">
<rect y="0.983337" width="226.661" height="51.0167" fill="#121212"/>
<rect x="229.719" y="0.983337" width="51.0165" height="51.0167" fill="#121212"/>
<path d="M20.1947 19.4457V27.3837C20.1947 28.4997 20.4647 29.3277 21.0047 29.8677C21.5567 30.4077 22.3187 30.6777 23.2907 30.6777C24.2507 30.6777 25.0007 30.4077 25.5407 29.8677C26.0927 29.3277 26.3687 28.4997 26.3687 27.3837V19.4457H28.0067V27.3657C28.0067 28.4097 27.7967 29.2917 27.3767 30.0117C26.9567 30.7197 26.3867 31.2477 25.6667 31.5957C24.9587 31.9437 24.1607 32.1177 23.2727 32.1177C22.3847 32.1177 21.5807 31.9437 20.8607 31.5957C20.1527 31.2477 19.5887 30.7197 19.1687 30.0117C18.7607 29.2917 18.5567 28.4097 18.5567 27.3657V19.4457H20.1947ZM32.3771 23.9457C32.7011 23.3817 33.1811 22.9137 33.8171 22.5417C34.4651 22.1577 35.2151 21.9657 36.0671 21.9657C36.9431 21.9657 37.7351 22.1757 38.4431 22.5957C39.1631 23.0157 39.7271 23.6097 40.1352 24.3777C40.5431 25.1337 40.7471 26.0157 40.7471 27.0237C40.7471 28.0197 40.5431 28.9077 40.1352 29.6877C39.7271 30.4677 39.1631 31.0737 38.4431 31.5057C37.7351 31.9377 36.9431 32.1537 36.0671 32.1537C35.2271 32.1537 34.4831 31.9677 33.8351 31.5957C33.1991 31.2117 32.7131 30.7377 32.3771 30.1737V36.6717H30.7391V22.1277H32.3771V23.9457ZM39.0731 27.0237C39.0731 26.2797 38.9231 25.6317 38.6232 25.0797C38.3231 24.5277 37.9151 24.1077 37.3991 23.8197C36.8951 23.5317 36.3371 23.3877 35.7251 23.3877C35.1251 23.3877 34.5671 23.5377 34.0511 23.8377C33.5471 24.1257 33.1391 24.5517 32.8271 25.1157C32.5271 25.6677 32.3771 26.3097 32.3771 27.0417C32.3771 27.7857 32.5271 28.4397 32.8271 29.0037C33.1391 29.5557 33.5471 29.9817 34.0511 30.2817C34.5671 30.5697 35.1251 30.7137 35.7251 30.7137C36.3371 30.7137 36.8951 30.5697 37.3991 30.2817C37.9151 29.9817 38.3231 29.5557 38.6232 29.0037C38.9231 28.4397 39.0731 27.7797 39.0731 27.0237ZM44.5412 18.6717V31.9917H42.9032V18.6717H44.5412ZM51.6349 32.1537C50.7109 32.1537 49.8709 31.9437 49.1149 31.5237C48.3709 31.1037 47.7829 30.5097 47.3509 29.7417C46.9309 28.9617 46.7209 28.0617 46.7209 27.0417C46.7209 26.0337 46.9369 25.1457 47.3689 24.3777C47.8129 23.5977 48.4129 23.0037 49.1689 22.5957C49.9249 22.1757 50.7709 21.9657 51.7069 21.9657C52.6429 21.9657 53.4889 22.1757 54.2449 22.5957C55.0009 23.0037 55.5949 23.5917 56.0269 24.3597C56.4709 25.1277 56.6929 26.0217 56.6929 27.0417C56.6929 28.0617 56.4649 28.9617 56.0089 29.7417C55.5649 30.5097 54.9589 31.1037 54.1909 31.5237C53.4229 31.9437 52.5709 32.1537 51.6349 32.1537ZM51.6349 30.7137C52.2229 30.7137 52.7749 30.5757 53.2909 30.2997C53.8069 30.0237 54.2209 29.6097 54.5329 29.0577C54.8569 28.5057 55.0189 27.8337 55.0189 27.0417C55.0189 26.2497 54.8629 25.5777 54.5509 25.0257C54.2389 24.4737 53.8309 24.0657 53.3269 23.8017C52.8229 23.5257 52.2769 23.3877 51.6889 23.3877C51.0889 23.3877 50.5369 23.5257 50.0329 23.8017C49.5409 24.0657 49.1449 24.4737 48.8449 25.0257C48.5449 25.5777 48.3949 26.2497 48.3949 27.0417C48.3949 27.8457 48.5389 28.5237 48.8269 29.0757C49.1269 29.6277 49.5229 30.0417 50.0149 30.3177C50.5069 30.5817 51.0469 30.7137 51.6349 30.7137ZM58.2346 27.0237C58.2346 26.0157 58.4386 25.1337 58.8466 24.3777C59.2546 23.6097 59.8126 23.0157 60.5206 22.5957C61.2406 22.1757 62.0386 21.9657 62.9146 21.9657C63.7786 21.9657 64.5286 22.1517 65.1646 22.5237C65.8006 22.8957 66.2746 23.3637 66.5866 23.9277V22.1277H68.2426V31.9917H66.5866V30.1557C66.2626 30.7317 65.7766 31.2117 65.1286 31.5957C64.4926 31.9677 63.7486 32.1537 62.8966 32.1537C62.0206 32.1537 61.2286 31.9377 60.5206 31.5057C59.8126 31.0737 59.2546 30.4677 58.8466 29.6877C58.4386 28.9077 58.2346 28.0197 58.2346 27.0237ZM66.5866 27.0417C66.5866 26.2977 66.4366 25.6497 66.1366 25.0977C65.8366 24.5457 65.4286 24.1257 64.9126 23.8377C64.4086 23.5377 63.8506 23.3877 63.2386 23.3877C62.6266 23.3877 62.0686 23.5317 61.5646 23.8197C61.0606 24.1077 60.6586 24.5277 60.3586 25.0797C60.0586 25.6317 59.9086 26.2797 59.9086 27.0237C59.9086 27.7797 60.0586 28.4397 60.3586 29.0037C60.6586 29.5557 61.0606 29.9817 61.5646 30.2817C62.0686 30.5697 62.6266 30.7137 63.2386 30.7137C63.8506 30.7137 64.4086 30.5697 64.9126 30.2817C65.4286 29.9817 65.8366 29.5557 66.1366 29.0037C66.4366 28.4397 66.5866 27.7857 66.5866 27.0417ZM70.3986 27.0237C70.3986 26.0157 70.6026 25.1337 71.0106 24.3777C71.4186 23.6097 71.9766 23.0157 72.6846 22.5957C73.4046 22.1757 74.2086 21.9657 75.0966 21.9657C75.8646 21.9657 76.5786 22.1457 77.2386 22.5057C77.8986 22.8537 78.4026 23.3157 78.7506 23.8917V18.6717H80.4066V31.9917H78.7506V30.1377C78.4266 30.7257 77.9466 31.2117 77.3106 31.5957C76.6746 31.9677 75.9306 32.1537 75.0786 32.1537C74.2026 32.1537 73.4046 31.9377 72.6846 31.5057C71.9766 31.0737 71.4186 30.4677 71.0106 29.6877C70.6026 28.9077 70.3986 28.0197 70.3986 27.0237ZM78.7506 27.0417C78.7506 26.2977 78.6006 25.6497 78.3006 25.0977C78.0006 24.5457 77.5926 24.1257 77.0766 23.8377C76.5726 23.5377 76.0146 23.3877 75.4026 23.3877C74.7906 23.3877 74.2326 23.5317 73.7286 23.8197C73.2246 24.1077 72.8226 24.5277 72.5226 25.0797C72.2226 25.6317 72.0726 26.2797 72.0726 27.0237C72.0726 27.7797 72.2226 28.4397 72.5226 29.0037C72.8226 29.5557 73.2246 29.9817 73.7286 30.2817C74.2326 30.5697 74.7906 30.7137 75.4026 30.7137C76.0146 30.7137 76.5726 30.5697 77.0766 30.2817C77.5926 29.9817 78.0006 29.5557 78.3006 29.0037C78.6006 28.4397 78.7506 27.7857 78.7506 27.0417ZM97.6395 19.4457V31.9917H96.0015V26.3037H89.6115V31.9917H87.9735V19.4457H89.6115V24.9537H96.0015V19.4457H97.6395ZM109.436 26.6817C109.436 26.9937 109.418 27.3237 109.382 27.6717H101.498C101.558 28.6437 101.888 29.4057 102.488 29.9577C103.1 30.4977 103.838 30.7677 104.702 30.7677C105.41 30.7677 105.998 30.6057 106.466 30.2817C106.946 29.9457 107.282 29.5017 107.474 28.9497H109.238C108.974 29.8977 108.446 30.6717 107.654 31.2717C106.862 31.8597 105.878 32.1537 104.702 32.1537C103.766 32.1537 102.926 31.9437 102.182 31.5237C101.45 31.1037 100.874 30.5097 100.454 29.7417C100.034 28.9617 99.8244 28.0617 99.8244 27.0417C99.8244 26.0217 100.028 25.1277 100.436 24.3597C100.844 23.5917 101.414 23.0037 102.146 22.5957C102.89 22.1757 103.742 21.9657 104.702 21.9657C105.638 21.9657 106.466 22.1697 107.186 22.5777C107.906 22.9857 108.458 23.5497 108.842 24.2697C109.238 24.9777 109.436 25.7817 109.436 26.6817ZM107.744 26.3397C107.744 25.7157 107.606 25.1817 107.33 24.7377C107.054 24.2817 106.676 23.9397 106.196 23.7117C105.728 23.4717 105.206 23.3517 104.63 23.3517C103.802 23.3517 103.094 23.6157 102.506 24.1437C101.93 24.6717 101.6 25.4037 101.516 26.3397H107.744ZM113.237 23.7297C113.525 23.1657 113.933 22.7277 114.461 22.4157C115.001 22.1037 115.655 21.9477 116.423 21.9477V23.6397H115.991C114.155 23.6397 113.237 24.6357 113.237 26.6277V31.9917H111.599V22.1277H113.237V23.7297ZM127.313 26.6817C127.313 26.9937 127.295 27.3237 127.259 27.6717H119.375C119.435 28.6437 119.765 29.4057 120.365 29.9577C120.977 30.4977 121.715 30.7677 122.579 30.7677C123.287 30.7677 123.875 30.6057 124.343 30.2817C124.823 29.9457 125.159 29.5017 125.351 28.9497H127.115C126.851 29.8977 126.323 30.6717 125.531 31.2717C124.739 31.8597 123.755 32.1537 122.579 32.1537C121.643 32.1537 120.803 31.9437 120.059 31.5237C119.327 31.1037 118.751 30.5097 118.331 29.7417C117.911 28.9617 117.701 28.0617 117.701 27.0417C117.701 26.0217 117.905 25.1277 118.313 24.3597C118.721 23.5917 119.291 23.0037 120.023 22.5957C120.767 22.1757 121.619 21.9657 122.579 21.9657C123.515 21.9657 124.343 22.1697 125.063 22.5777C125.783 22.9857 126.335 23.5497 126.719 24.2697C127.115 24.9777 127.313 25.7817 127.313 26.6817ZM125.621 26.3397C125.621 25.7157 125.483 25.1817 125.207 24.7377C124.931 24.2817 124.553 23.9397 124.073 23.7117C123.605 23.4717 123.083 23.3517 122.507 23.3517C121.679 23.3517 120.971 23.6157 120.383 24.1437C119.807 24.6717 119.477 25.4037 119.393 26.3397H125.621Z" fill="white"/>
<path d="M243.561 40.6583H266.894V37.325H243.561V40.6583ZM243.561 23.9917H250.228V33.9917H260.228V23.9917H266.894L255.228 12.325L243.561 23.9917Z" fill="white"/>
</svg>
